<?xml version="1.0" encoding="utf-8"?>
<!-- Generator: Adobe Illustrator 24.2.0, SVG Export Plug-In . SVG Version: 6.00 Build 0)  -->
<svg version="1.1" id="Layer_1" xmlns="http://www.w3.org/2000/svg" xmlns:xlink="http://www.w3.org/1999/xlink" x="0px" y="0px"
	 viewBox="0 0 100 100" style="enable-background:new 0 0 100 100;" xml:space="preserve">
<style type="text/css">
	.st0{fill:#78A2D2;}
	.st1{fill:#1F212B;}
	.st2{fill:#FEFDEF;}
</style>
<path class="st0" d="M50,2.1C23.5,2.1,2.1,23.5,2.1,50S23.5,97.9,50,97.9S97.9,76.5,97.9,50S76.5,2.1,50,2.1z"/>
<path class="st1" d="M87.3,69.2c-0.1,0-0.2,0-0.3-0.1c-0.3-0.2-0.5-0.6-0.3-0.9c0.3-0.6,0.5-1.1,0.8-1.7c0.9-2.2,1.7-4.5,2.2-6.9
	c0.1-0.4,0.4-0.6,0.8-0.5c0.4,0.1,0.6,0.5,0.5,0.8c-0.6,2.4-1.3,4.8-2.3,7.1c-0.3,0.6-0.5,1.2-0.8,1.7
	C87.8,69.1,87.5,69.2,87.3,69.2z M91.6,54.6C91.6,54.6,91.5,54.6,91.6,54.6c-0.4,0-0.7-0.4-0.7-0.7C91,53,91,52.1,91,51.2
	c0.1-5.5-0.8-10.9-2.8-16c-0.1-0.4,0-0.7,0.4-0.9c0.4-0.1,0.7,0,0.9,0.4c2.1,5.3,3,10.9,2.9,16.5c0,0.9-0.1,1.8-0.2,2.7
	C92.2,54.4,91.9,54.6,91.6,54.6z M19.5,22.3c-0.2,0-0.3-0.1-0.5-0.2c-0.3-0.3-0.3-0.7,0-1C25.9,13.7,35.3,9,45.4,7.9
	c0.4,0,0.7,0.2,0.8,0.6c0,0.4-0.2,0.7-0.6,0.8C35.8,10.4,26.7,14.9,20,22C19.9,22.2,19.7,22.3,19.5,22.3z M21.6,81.2
	c-0.2,0-0.3-0.1-0.5-0.2c-14.4-13.5-17.7-34.8-8-51.9c0.2-0.3,0.6-0.4,0.9-0.3c0.3,0.2,0.4,0.6,0.3,0.9C4.9,46.3,8.1,66.9,22.1,80
	c0.3,0.3,0.3,0.7,0,1C22,81.1,21.8,81.2,21.6,81.2z M68.3,88.3c-0.3,0-0.5-0.1-0.6-0.4c-0.2-0.3,0-0.7,0.3-0.9
	c4.5-2.2,8.6-5.2,12.1-8.9c1.4-1.5,2.7-3.1,3.9-4.8c0.2-0.3,0.6-0.4,1-0.2s0.4,0.6,0.2,1c-1.2,1.7-2.5,3.4-4,5
	c-3.6,3.9-7.8,7-12.5,9.2C68.5,88.3,68.4,88.3,68.3,88.3z"/>
<path class="st2" d="M42.5,96.5V63H30.2V50.7h12.3V38.4c-0.3-11,8.1-21.7,27.4-15.8l0,11.6l-6.7,0c-5.2,0-6.9,1.7-6.9,5.4v11h14.7
	L68.3,63H56.2v33.5"/>
<path class="st1" d="M56.8,96.5h-1.4V62.3h12.3l2.3-10.9H55.5V39.6c0-4.3,2.3-6.1,7.6-6.1l6,0l0-10.4c-8.4-2.5-15.3-1.9-20,1.7
	c-3.9,3-6.1,7.9-6,13.6v13H30.8v10.9h12.3v34.2h-1.4V63.7H29.5V50h12.3V38.4c-0.1-6.1,2.2-11.5,6.5-14.7C51.9,21,58.6,18.4,70,22
	l0.5,0.1l0,12.8l-7.4,0c-5.2,0-6.2,1.8-6.2,4.7V50h14.9l-2.9,13.7h-12V96.5z"/>
<g>
	<path class="st1" d="M50,99.3C22.8,99.3,0.7,77.2,0.7,50S22.8,0.7,50,0.7S99.3,22.8,99.3,50S77.2,99.3,50,99.3z M50,3.5
		C24.3,3.5,3.5,24.3,3.5,50S24.3,96.5,50,96.5S96.5,75.7,96.5,50S75.7,3.5,50,3.5z"/>
</g>
</svg>
