<?xml version="1.0" encoding="utf-8"?>
<!-- Generator: Adobe Illustrator 24.2.0, SVG Export Plug-In . SVG Version: 6.00 Build 0)  -->
<svg version="1.1" id="Layer_1" xmlns="http://www.w3.org/2000/svg" xmlns:xlink="http://www.w3.org/1999/xlink" x="0px" y="0px"
	 viewBox="0 0 100 100" style="enable-background:new 0 0 100 100;" xml:space="preserve">
<style type="text/css">
	.st0{fill:#4E5FD8;}
	.st1{fill:#7550CC;}
	.st2{fill:#9C32C8;}
	.st3{fill:#D515A3;}
	.st4{fill:#EC007A;}
	.st5{fill:#FF492E;}
	.st6{fill:#FF7A02;}
	.st7{fill:#FFA823;}
	.st8{fill:#FFCA58;}
	.st9{fill:#FFDB73;}
	.st10{fill:#FFFFFF;}
	.st11{fill:#1F212B;}
</style>
<path class="st0" d="M97,22.1v55.8c0,2.9-0.7,5.8-1.9,8.2c-1.6,3.4-4.3,6.3-7.6,8.2C84.7,96,81.4,97,77.9,97H22.1
	c-2.2,0-4.2-0.4-6.2-1h0c-3.6-1.2-6.6-3.4-8.9-6.4c-2.5-3.2-4-7.3-4-11.7V22.1c0-0.9,0.1-1.7,0.2-2.6c0.1-1.1,0.4-2.2,0.7-3.3
	C6.4,8.6,13.6,3,22.1,3h55.8c0.6,0,1.2,0,1.8,0.1h0C80.9,3.2,82,3.4,83,3.8c6.9,1.9,12.2,7.6,13.6,14.8c0.1,0.7,0.2,1.3,0.3,2
	C96.9,21.1,97,21.6,97,22.1z"/>
<path class="st1" d="M96.6,18.5C95.3,11.4,89.9,5.7,83,3.8c-1.1-0.2-2.2-0.4-3.3-0.6h0c-0.2,0-0.4-0.1-0.6-0.1H44.3
	c-15,2.5-29,8.3-41.1,16.5C3.1,20.4,3,21.3,3,22.1v55.8c0,4.4,1.5,8.5,4,11.7c2.2,2.9,5.3,5.2,8.9,6.4h0c1.9,0.7,4,1,6.2,1h55.8
	c3.5,0,6.8-1,9.7-2.6c3.3-1.9,5.9-4.8,7.6-8.2c1.2-2.5,1.9-5.3,1.9-8.2V22.1c0-0.5,0-1-0.1-1.6C96.8,19.9,96.7,19.2,96.6,18.5z"/>
<path class="st2" d="M97,22.1v55.8c0,2.9-0.7,5.8-1.9,8.2c-1.6,3.4-4.3,6.3-7.6,8.2C84.7,96,81.4,97,77.9,97H22.1
	c-2.2,0-4.2-0.4-6.2-1h0c-3.6-1.2-6.6-3.4-8.9-6.4c-2.5-3.2-4-7.3-4-11.7V32.4c16.1-12.9,36.5-20.6,58.7-20.6
	c12.3,0,24.1,2.4,34.9,6.7c0.1,0.7,0.2,1.3,0.3,2C96.9,21.1,97,21.6,97,22.1z"/>
<path class="st3" d="M97,29.9v48c0,2.9-0.7,5.8-1.9,8.2c-1.6,3.4-4.3,6.3-7.6,8.2C84.7,96,81.4,97,77.9,97H22.1
	c-2.2,0-4.2-0.4-6.2-1h0c-3.6-1.2-6.6-3.4-8.9-6.4c-2.5-3.2-4-7.3-4-11.7V46.2c15.1-14.9,35.8-24.1,58.7-24.1
	C74.3,22.1,86.3,24.9,97,29.9z"/>
<path class="st4" d="M97,41.4v36.5c0,2.9-0.7,5.8-1.9,8.2c-1.6,3.4-4.3,6.3-7.6,8.2C84.7,96,81.4,97,77.9,97H22.1
	c-2.2,0-4.2-0.4-6.2-1h0c-3.6-1.2-6.6-3.4-8.9-6.4c-2.5-3.2-4-7.3-4-11.7V61.8c13.4-17.8,34.7-29.4,58.7-29.4
	C74.5,32.4,86.5,35.6,97,41.4z"/>
<path class="st5" d="M97,73.6v4.3c0,4.4-1.5,8.5-4,11.7c-2.2,2.9-5.3,5.2-8.9,6.4h0c-1.9,0.7-4,1-6.2,1H22.1c-3.5,0-6.8-1-9.7-2.6
	c-3.3-1.9-5.9-4.8-7.6-8.2C3.7,83.6,3,80.8,3,77.9V56.7c10.8-8.8,24.6-14,39.6-14C65.8,42.7,86,55.1,97,73.6z"/>
<path class="st6" d="M93,89.6c-2.2,2.9-5.3,5.2-8.9,6.4h0c-1.9,0.7-4,1-6.2,1H22.1c-3.5,0-6.8-1-9.7-2.6c-3.3-1.9-5.9-4.8-7.6-8.2
	C3.7,83.6,3,80.8,3,77.9v-7.1c9.7-11,23.8-17.9,39.6-17.9C66.2,52.9,86.1,68.3,93,89.6z"/>
<path class="st7" d="M84.1,95.9c-1.9,0.7-4,1-6.2,1H22.1c-3.5,0-6.8-1-9.7-2.6c-3.3-1.9-5.9-4.8-7.6-8.2
	C12,72.5,26.2,63.2,42.7,63.2C62.8,63.2,79.6,77.2,84.1,95.9z"/>
<path class="st8" d="M73.7,97H22.1c-3.5,0-6.8-1-9.7-2.6c4.6-12.2,16.4-20.8,30.2-20.8C57.4,73.5,69.9,83.4,73.7,97z"/>
<path class="st9" d="M62.8,97H22.5c3.4-7.8,11.2-13.2,20.2-13.2S59.4,89.2,62.8,97z"/>
<path class="st10" d="M64.7,15.5H35.3c-10.9,0-19.8,8.9-19.8,19.8v29.4c0,10.9,8.9,19.8,19.8,19.8h29.4c10.9,0,19.8-8.9,19.8-19.8
	V35.3C84.5,24.4,75.6,15.5,64.7,15.5z M78.6,64.7c0,7.7-6.3,13.9-13.9,13.9H35.3c-7.7,0-13.9-6.3-13.9-13.9V35.3
	c0-7.7,6.3-13.9,13.9-13.9h29.4c7.7,0,13.9,6.3,13.9,13.9V64.7z M50,66.9c-9.3,0-16.9-7.6-16.9-16.9S40.7,33.1,50,33.1
	S66.9,40.7,66.9,50S59.3,66.9,50,66.9z M50,39c-6.1,0-11,4.9-11,11s4.9,11,11,11s11-4.9,11-11S56.1,39,50,39z M72.7,31.7
	c0,2.4-2,4.4-4.4,4.4c-2.4,0-4.4-2-4.4-4.4s2-4.4,4.4-4.4C70.8,27.3,72.7,29.2,72.7,31.7z"/>
<path class="st11" d="M64.7,85.2H35.3C24,85.2,14.8,76,14.8,64.7V35.3c0-11.3,9.2-20.5,20.5-20.5h29.4c11.3,0,20.5,9.2,20.5,20.5
	v29.4C85.2,76,76,85.2,64.7,85.2z M35.3,16.2c-10.5,0-19.1,8.6-19.1,19.1v29.4c0,10.5,8.6,19.1,19.1,19.1h29.4
	c10.5,0,19.1-8.6,19.1-19.1V35.3c0-10.5-8.6-19.1-19.1-19.1H35.3z M64.7,79.4H35.3c-8.1,0-14.7-6.6-14.7-14.7V35.3
	c0-8.1,6.6-14.7,14.7-14.7h29.4c8.1,0,14.7,6.6,14.7,14.7v29.4C79.4,72.8,72.8,79.4,64.7,79.4z M35.3,22.1
	c-7.3,0-13.2,5.9-13.2,13.2v29.4c0,7.3,5.9,13.2,13.2,13.2h29.4c7.3,0,13.2-5.9,13.2-13.2V35.3c0-7.3-5.9-13.2-13.2-13.2H35.3z
	 M50,67.6c-9.7,0-17.6-7.9-17.6-17.6S40.3,32.4,50,32.4S67.6,40.3,67.6,50S59.7,67.6,50,67.6z M50,33.9c-8.9,0-16.1,7.2-16.1,16.1
	S41.1,66.1,50,66.1S66.1,58.9,66.1,50S58.9,33.9,50,33.9z M50,61.7c-6.5,0-11.7-5.3-11.7-11.7S43.5,38.3,50,38.3S61.7,43.5,61.7,50
	S56.5,61.7,50,61.7z M50,39.7c-5.7,0-10.3,4.6-10.3,10.3S44.3,60.3,50,60.3S60.3,55.7,60.3,50S55.7,39.7,50,39.7z M68.3,36.8
	c-2.8,0-5.1-2.3-5.1-5.1s2.3-5.1,5.1-5.1s5.1,2.3,5.1,5.1S71.2,36.8,68.3,36.8z M68.3,28c-2,0-3.7,1.6-3.7,3.7s1.6,3.7,3.7,3.7
	s3.7-1.6,3.7-3.7S70.4,28,68.3,28z M77.9,98.4H22.1c-11.3,0-20.5-9.2-20.5-20.5V22.1c0-11.3,9.2-20.5,20.5-20.5h55.8
	c11.3,0,20.5,9.2,20.5,20.5v55.8C98.4,89.2,89.2,98.4,77.9,98.4z M22.1,4.5c-9.7,0-17.6,7.9-17.6,17.6v55.8
	c0,9.7,7.9,17.6,17.6,17.6h55.8c9.7,0,17.6-7.9,17.6-17.6V22.1c0-9.7-7.9-17.6-17.6-17.6H22.1z"/>
</svg>
