<?xml version="1.0" encoding="utf-8"?>
<!-- Generator: Adobe Illustrator 26.0.1, SVG Export Plug-In . SVG Version: 6.00 Build 0)  -->
<svg version="1.1" id="Livello_1" xmlns="http://www.w3.org/2000/svg" xmlns:xlink="http://www.w3.org/1999/xlink" x="0px" y="0px"
	 viewBox="0 0 547.5 132.9" style="enable-background:new 0 0 547.5 132.9;" xml:space="preserve">
<style type="text/css">
	.st0{fill:#F4A055;}
	.st1{fill-rule:evenodd;clip-rule:evenodd;fill:#F4A055;}
	.st2{fill-rule:evenodd;clip-rule:evenodd;fill:#000F2A;}
	.st3{fill:#1D1D1B;}
	.st4{fill-rule:evenodd;clip-rule:evenodd;fill:#FFFFFF;}
	.st5{fill-rule:evenodd;clip-rule:evenodd;fill:#7370AC;}
	.st6{fill-rule:evenodd;clip-rule:evenodd;fill:#4D4B73;}
	.st7{fill-rule:evenodd;clip-rule:evenodd;fill:#C9C9C9;}
	.st8{fill:#000F2A;}
	.st9{fill-rule:evenodd;clip-rule:evenodd;fill:#F8C544;}
	.st10{fill-rule:evenodd;clip-rule:evenodd;fill:#D13D2A;}
	.st11{fill-rule:evenodd;clip-rule:evenodd;fill:#AE3727;}
	.st12{fill-rule:evenodd;clip-rule:evenodd;fill:none;stroke:#000000;stroke-miterlimit:10;}
	.st13{fill-rule:evenodd;clip-rule:evenodd;fill:#0C1429;}
	.st14{fill-rule:evenodd;clip-rule:evenodd;fill:#F8C342;}
	.st15{fill-rule:evenodd;clip-rule:evenodd;fill:#D23C28;}
	.st16{fill-rule:evenodd;clip-rule:evenodd;fill:#AE3726;}
	.st17{fill-rule:evenodd;clip-rule:evenodd;fill:#CAC8C7;}
	.st18{fill:#0C1429;}
	.st19{fill:#F2944F;}
	.st20{fill:#F08EAC;}
	.st21{fill:#8BBE3D;}
	.st22{fill:#7370AC;}
	.st23{fill:#E63555;}
	.st24{fill:#FFFFFF;}
	.st25{fill-rule:evenodd;clip-rule:evenodd;fill:none;stroke:#F4A055;stroke-miterlimit:10;}
	.st26{fill-rule:evenodd;clip-rule:evenodd;fill:#0B1429;}
	.st27{fill-rule:evenodd;clip-rule:evenodd;fill:#E63555;}
	.st28{fill-rule:evenodd;clip-rule:evenodd;fill:#F2944F;}
</style>
<g>
	<g>
		<path class="st3" d="M128.7,96.3c0-1.3,0.1-2.7,0.2-4.1c0.8-6.5,2.8-12.3,6.2-17.3c4-6.2,8.9-9.3,14.5-9.3c2,0,3.9,0.4,5.8,1.1
			l4.6-32.8c0.6-4.4,2.2-6.7,4.7-6.7c0.4,0,0.8,0.1,1.2,0.3c1.7,1,2.6,5,2.6,11.9c0,0.8-0.5,5.1-1.5,13.1
			c-4.3,27.7-6.5,42.9-6.5,45.7c0,1.7,0.4,3.4,1.1,4.9c1.1,2.3,2.5,3.4,4.3,3.4c0.3,0,0.7,0,1.1-0.1c1.1-0.2,2.8-1.1,5-2.6
			c2.1-1.5,3.8-2.3,5.1-2.3c0.5,0,1,0.2,1.5,0.6c0.9,0.8,1.4,1.7,1.4,2.9c-0.2,2-1.6,4-4.4,6.2c-3.4,2.4-7,3.6-10.9,3.6
			c-4.7,0-8.3-2.4-10.7-7.2c-0.6,0.7-1.2,1.3-1.9,2c-3.6,3.3-7.3,5-11.1,5c-2.4,0-4.5-0.6-6.2-1.8C130.6,110,128.7,104.5,128.7,96.3
			z M148.9,100.2c0.5-0.7,1.1-2.6,1.8-5.6c1.5-6.6,2.7-13.5,3.5-20.7c-0.9-0.4-1.8-0.7-2.7-0.8c-0.7,0-1.4,0.1-2.1,0.3
			c-3.5,1-6.5,4.3-8.9,9.8c-2.2,5-3.2,10-3.2,15c0,0.4,0,0.8,0.1,1.3c0.2,4.2,1.4,6.3,3.5,6.3c1.1,0,2.5-0.6,4.2-1.8
			C146.7,102.6,148.1,101.4,148.9,100.2z"/>
		<path class="st3" d="M198.2,83.6c0.3-2.3,0.7-6.7,1.1-13c0-0.3,0.1-0.6,0.1-0.8c0.5-2.4,1.9-3.7,4.4-3.7c0.1,0,0.2,0,0.4,0.1
			c2.1,0.3,3.1,2.5,3.1,6.6c0,1.1-0.1,2.6-0.2,4.7c-0.1-1.4,0-1.9,0.1-1.6c-0.8,10.3-1.2,16.9-1.2,19.6c0,1,0.1,2,0.2,3
			c0.6,4.8,2.3,7.3,5.1,7.3c0.4,0,0.8,0,1.2-0.1c1.1-0.3,2.7-1.1,4.8-2.5c2.1-1.5,3.8-2.3,5-2.3c0.5,0,1,0.2,1.4,0.4
			c1.2,0.7,1.8,1.8,1.8,3.3c0,0.1,0,0.3-0.1,0.4c-0.3,1.8-1.8,3.6-4.7,5.5c-3.5,2.3-7,3.5-10.5,3.5c-4.7,0-8.1-2.2-10.1-6.4
			c-3.3,4-7.9,6.1-13.7,6.1c-1.4,0-2.7-0.2-3.9-0.5c-6.6-2-10-9.3-10-21.9c0-6.1,0.7-12.2,2-18.3c0.1-0.3,0.2-0.6,0.2-1
			c1.2-4.2,2.8-6.3,5-6.3c2.7,0,4.1,1.5,4.2,4.5c0,0.6-0.2,2-0.5,4.1c-1.3,8.6-2,14.8-2,18.6c0,8,2,12,6,12
			C192.6,104.9,196.2,97.8,198.2,83.6z"/>
		<path class="st3" d="M217.2,96.3c0-1.3,0.1-2.7,0.2-4.1c0.8-6.5,2.8-12.3,6.2-17.3c4-6.2,8.9-9.3,14.5-9.3c2,0,3.9,0.4,5.8,1.1
			l4.6-32.8c0.6-4.4,2.2-6.7,4.7-6.7c0.4,0,0.8,0.1,1.2,0.3c1.7,1,2.6,5,2.6,11.9c0,0.8-0.5,5.1-1.5,13.1
			c-4.3,27.7-6.5,42.9-6.5,45.7c0,1.7,0.4,3.4,1.1,4.9c1.1,2.3,2.5,3.4,4.3,3.4c0.3,0,0.7,0,1.1-0.1c1.1-0.2,2.8-1.1,5-2.6
			c2.1-1.5,3.8-2.3,5.1-2.3c0.5,0,1,0.2,1.5,0.6c0.9,0.8,1.4,1.7,1.4,2.9c-0.2,2-1.6,4-4.4,6.2c-3.4,2.4-7,3.6-10.9,3.6
			c-4.7,0-8.3-2.4-10.7-7.2c-0.6,0.7-1.2,1.3-1.9,2c-3.6,3.3-7.3,5-11.1,5c-2.4,0-4.5-0.6-6.2-1.8C219.1,110,217.2,104.5,217.2,96.3
			z M237.4,100.2c0.5-0.7,1.1-2.6,1.8-5.6c1.5-6.6,2.7-13.5,3.5-20.7c-0.9-0.4-1.8-0.7-2.7-0.8c-0.7,0-1.4,0.1-2.1,0.3
			c-3.5,1-6.5,4.3-8.9,9.8c-2.2,5-3.2,10-3.2,15c0,0.4,0,0.8,0.1,1.3c0.2,4.2,1.4,6.3,3.5,6.3c1.1,0,2.5-0.6,4.2-1.8
			C235.2,102.6,236.6,101.4,237.4,100.2z"/>
		<path class="st3" d="M262.3,97c0-1.3,0.1-2.7,0.2-4.1c0.8-6.5,2.8-12.3,6.2-17.3c4-6.2,8.9-9.3,14.5-9.3c1.5,0,3,0.2,4.4,0.6
			c5,1.4,7.5,5,7.5,10.6c0,0.4,0,0.9-0.1,1.3c-0.4,5.1-2.7,9.4-6.8,12.9c-4.1,3.4-8.8,5.1-14.3,5.1c-1,0-2-0.1-3-0.3
			c-0.1,0.6-0.1,1.4-0.1,2.4c0,2.2,0.4,3.9,1.1,5.1c1,1.5,3.1,2.4,6.3,2.7c1.4,0,2.8-0.2,4.1-0.4c2.4-0.6,5.2-1.9,8.5-4
			c2.1-1.4,3.6-2.1,4.5-2.1c0.5,0,1,0.2,1.5,0.5c1.2,0.7,1.8,1.8,1.8,3.1c0,0.5-0.1,0.9-0.3,1.5c-1,2.5-4.1,4.8-9.2,7
			c-4.7,2-8.9,3.1-12.5,3.1c-1.4,0-2.6-0.1-3.8-0.3C265.9,113.4,262.3,107.5,262.3,97z M280.6,75.1c-3.4,2.3-6.1,6.8-8.1,13.3
			c0.9,0.2,1.9,0.3,2.7,0.3c3.1,0,5.9-1,8.2-2.9c2.6-2.1,3.9-4.7,3.9-7.6c0-2.9-0.9-4.4-2.8-4.5C283.3,73.8,282,74.2,280.6,75.1z"/>
	</g>
	<g>
		<path class="st3" d="M302.5,114.8l18.3-25.1l-0.1,1.3L304.3,68h3.9l14.2,20.3h0.8L337.7,68h3.8l-16.9,23.6l0.1-1.3l17.7,24.7h-3.9
			L322.8,93h-0.8l-15.7,21.8L302.5,114.8z"/>
		<path class="st3" d="M348.4,114.9V67.8h3.5v47.1H348.4z M350.6,97v-3.1h11.3c2.8,0,5.1-0.5,6.8-1.5c1.7-1,3-2.4,3.8-4.1
			c0.8-1.7,1.2-3.7,1.2-5.8c0-2.1-0.4-4-1.2-5.8c-0.8-1.7-2.1-3.1-3.8-4.1c-1.7-1-4-1.5-6.8-1.5h-11.3v-3.1h10.9
			c3.6,0,6.6,0.6,8.9,1.9c2.3,1.3,4,3,5.1,5.1c1.1,2.1,1.7,4.5,1.7,7.2v0.8c0,2.6-0.6,5-1.7,7.2c-1.1,2.2-2.8,3.9-5.1,5.1
			c-2.3,1.3-5.3,1.9-8.9,1.9H350.6z"/>
		<path class="st3" d="M384.3,114.9V67.8h3.5v47.1H384.3z M386.2,96.3v-3.1h12.6c2.7,0,4.9-0.5,6.5-1.5c1.6-1,2.9-2.3,3.7-4
			c0.8-1.7,1.2-3.6,1.2-5.6c0-2.1-0.4-3.9-1.2-5.6c-0.8-1.7-2-3-3.7-4c-1.6-1-3.8-1.5-6.5-1.5h-12.6v-3.1h12.1
			c3.4,0,6.3,0.6,8.5,1.8c2.3,1.2,4,2.8,5.1,4.9c1.1,2.1,1.7,4.5,1.7,7.2v0.8c0,2.7-0.6,5.2-1.7,7.2c-1.1,2.1-2.8,3.7-5.1,4.9
			c-2.3,1.2-5.1,1.8-8.5,1.8H386.2z M413.6,114.9l-16.6-20.6h4.2l16.6,20.6H413.6z"/>
		<path class="st3" d="M423.9,114.9V68h3.5v46.9H423.9z M426.2,71.1V68h23.4v3.1H426.2z M426.2,92.7v-3.2h21.9v3.2H426.2z
			 M426.2,114.9v-3.1h24.2v3.1H426.2z"/>
		<path class="st3" d="M472.9,116c-4,0-7.3-0.6-10-1.9c-2.7-1.3-4.6-3-6-5.2c-1.3-2.2-2-4.7-2-7.5h3.5c0,2.1,0.5,4.1,1.5,5.8
			c1,1.7,2.6,3.1,4.7,4.1c2.1,1,4.9,1.5,8.2,1.5c3.1,0,5.7-0.4,7.8-1.3c2.1-0.9,3.7-2.1,4.7-3.7c1-1.6,1.6-3.4,1.6-5.4
			c0-2.5-0.9-4.7-2.8-6.5c-1.9-1.8-4.8-2.9-8.6-3.2l-5.6-0.4c-3.9-0.3-7-1.6-9.3-3.7c-2.3-2.1-3.4-4.9-3.4-8.4
			c0-2.5,0.6-4.7,1.7-6.7c1.2-2,2.9-3.6,5.2-4.8c2.3-1.2,5.2-1.8,8.5-1.8c3.4,0,6.3,0.6,8.7,1.9c2.4,1.3,4.1,3,5.4,5.1
			c1.2,2.1,1.8,4.5,1.8,7.2h-3.5c0-1.9-0.4-3.7-1.3-5.4c-0.9-1.6-2.2-3-4-4c-1.8-1-4.2-1.5-7.1-1.5c-2.8,0-5.1,0.5-6.9,1.4
			c-1.8,0.9-3.1,2.1-3.9,3.7c-0.8,1.5-1.3,3.2-1.3,5c0,2.6,0.8,4.6,2.5,6.2c1.6,1.5,4,2.5,7.1,2.8l5.6,0.4c3.1,0.3,5.8,1,7.9,2.2
			c2.2,1.2,3.8,2.7,4.9,4.5c1.1,1.8,1.7,3.9,1.7,6.2c0,2.6-0.7,5-2.1,7c-1.4,2.1-3.4,3.7-6,4.9C479.9,115.4,476.7,116,472.9,116z"/>
		<path class="st3" d="M514.3,116c-4,0-7.3-0.6-10-1.9c-2.7-1.3-4.6-3-6-5.2c-1.3-2.2-2-4.7-2-7.5h3.5c0,2.1,0.5,4.1,1.5,5.8
			c1,1.7,2.6,3.1,4.7,4.1c2.1,1,4.9,1.5,8.2,1.5c3.1,0,5.7-0.4,7.8-1.3c2.1-0.9,3.7-2.1,4.7-3.7c1-1.6,1.6-3.4,1.6-5.4
			c0-2.5-0.9-4.7-2.8-6.5c-1.9-1.8-4.8-2.9-8.6-3.2l-5.6-0.4c-3.9-0.3-7-1.6-9.3-3.7c-2.3-2.1-3.4-4.9-3.4-8.4
			c0-2.5,0.6-4.7,1.7-6.7c1.2-2,2.9-3.6,5.2-4.8c2.3-1.2,5.2-1.8,8.5-1.8c3.4,0,6.3,0.6,8.7,1.9c2.4,1.3,4.1,3,5.4,5.1
			c1.2,2.1,1.8,4.5,1.8,7.2h-3.5c0-1.9-0.4-3.7-1.3-5.4c-0.9-1.6-2.2-3-4-4c-1.8-1-4.2-1.5-7.1-1.5c-2.8,0-5.1,0.5-6.9,1.4
			c-1.8,0.9-3.1,2.1-3.9,3.7c-0.8,1.5-1.3,3.2-1.3,5c0,2.6,0.8,4.6,2.5,6.2c1.6,1.5,4,2.5,7.1,2.8l5.6,0.4c3.1,0.3,5.8,1,7.9,2.2
			c2.2,1.2,3.8,2.7,4.9,4.5c1.1,1.8,1.7,3.9,1.7,6.2c0,2.6-0.7,5-2.1,7c-1.4,2.1-3.4,3.7-6,4.9C521.3,115.4,518.1,116,514.3,116z"/>
	</g>
</g>
<g>
	<g>
		<path class="st0" d="M85,46.4c-4.2,15.3-8.4,30.4-12.6,45.7c-11.1-10.9-22-21.7-33.1-32.6C54.5,55.1,69.7,50.7,85,46.4z"/>
		<path class="st0" d="M85.1,45.2c-15.3,4.4-30.4,8.7-45.7,13.1c0.8-1.5,1.6-2.9,2.4-4.4c4.6-8.3,9.3-16.7,13.9-25
			c0.3-0.5,0.4-0.5,0.8-0.2c9.3,5.4,18.6,10.7,27.9,16.1C84.6,44.9,84.8,45,85.1,45.2z"/>
		<path class="st0" d="M86.2,46c1.4,2.4,2.8,4.8,4.2,7.1c4.3,7.4,8.6,14.9,13,22.3c0.2,0.4,0.1,0.5-0.2,0.7
			c-9.7,5.2-19.4,10.5-29,15.7c-0.2,0.1-0.3,0.2-0.6,0.3C77.7,76.7,81.9,61.4,86.2,46z"/>
		<path class="st0" d="M38.9,60.6C49.8,71.3,60.6,82,71.5,92.7c-11.3,0.4-22.5,0.8-33.7,1.1C38.2,82.8,38.5,71.7,38.9,60.6z"/>
		<path class="st0" d="M104,76.8c-9.2,9.1-18.4,18.3-27.6,27.5c-0.6-2-1.1-3.8-1.7-5.7c-0.5-1.6-0.9-3.1-1.4-4.7
			c-0.1-0.4-0.1-0.6,0.3-0.8c7.4-4,14.7-8,22.1-11.9c2.6-1.4,5.2-2.9,7.9-4.3C103.8,76.9,103.9,76.8,104,76.8z"/>
		<path class="st0" d="M54.6,28.7c-0.6,1.1-1.2,2.1-1.8,3.2c-4.8,8.6-9.6,17.2-14.4,25.8c-0.2,0.4-0.4,0.5-0.8,0.4
			c-3-0.9-6-1.7-9.1-2.5c-0.3-0.1-0.5-0.2-0.9-0.3C36.8,46.4,45.7,37.5,54.6,28.7z"/>
		<path class="st0" d="M40,94.9c1.4-0.1,2.9-0.1,4.3-0.2c6.3-0.2,12.6-0.4,19-0.6c2.8-0.1,5.6-0.2,8.5-0.3c0.2,0,0.5-0.1,0.6,0.3
			c1,3.5,2,6.9,3,10.5C63.5,101.4,51.7,98.2,40,95C40,95,40,94.9,40,94.9z"/>
		<path class="st0" d="M36.7,91.5c-3.1-11.7-6.2-23.4-9.3-35.2c1.4,0.4,2.6,0.7,3.9,1.1c1.9,0.5,3.8,1.1,5.7,1.6
			c0.7,0.2,0.9,0.5,0.8,1.1c-0.2,5.1-0.3,10.2-0.5,15.3c-0.2,5.2-0.3,10.5-0.5,15.7c0,0.1,0,0.2,0,0.4
			C36.8,91.5,36.7,91.5,36.7,91.5z"/>
		<path class="st0" d="M103.2,73.1c-1.6-2.7-3.1-5.4-4.7-8.1c-3.7-6.4-7.5-12.9-11.2-19.3c-0.3-0.4-0.3-0.7,0.1-1.1
			c2.2-2,4.5-4.1,6.8-6.2C97.2,49.9,100.2,61.5,103.2,73.1C103.2,73,103.2,73,103.2,73.1z"/>
		<path class="st0" d="M58.3,28.4c11.7,3.2,23.2,6.3,34.8,9.5c-1.2,0.9-2.1,1.9-3.1,2.9c-1.2,1.1-2.4,2.2-3.6,3.3
			c-0.3,0.3-0.5,0.3-0.9,0.1c-6.3-3.6-12.5-7.3-18.8-10.9c-2.7-1.6-5.4-3.1-8.1-4.6C58.5,28.6,58.5,28.6,58.3,28.4z"/>
	</g>
	<path class="st1" d="M107.7,45.1c0.2-4.6,1.9-7.8,5-9.8c-3.1-2-4.8-5.2-5-9.8c-0.2,4.6-1.9,7.8-5,9.8
		C105.8,37.2,107.6,40.4,107.7,45.1z"/>
	<path class="st2" d="M44.8,28.6c0.1-1.2,0.5-2,1.3-2.5c-0.8-0.5-1.2-1.3-1.3-2.4c0,1.1-0.5,2-1.3,2.4
		C44.4,26.7,44.8,27.5,44.8,28.6z"/>
	<path class="st2" d="M14.6,50.5c0.1-1.2,0.5-2,1.3-2.5c-0.8-0.5-1.2-1.3-1.3-2.4c0,1.2-0.5,2-1.3,2.4
		C14.2,48.6,14.6,49.4,14.6,50.5z"/>
	<path class="st2" d="M20,72.8c0-1.1,0.5-2,1.3-2.4c-0.8-0.5-1.2-1.3-1.3-2.5c-0.1,1.2-0.5,2-1.3,2.5C19.6,70.8,20,71.6,20,72.8z"/>
	<path class="st2" d="M108,100.5c0.1-1.2,0.5-2,1.3-2.5c-0.8-0.5-1.2-1.3-1.3-2.4c0,1.1-0.5,2-1.3,2.4
		C107.5,98.6,107.9,99.4,108,100.5z"/>
	<path class="st2" d="M114,57.1c0.1-1.1,0.5-2,1.3-2.4c-0.8-0.5-1.2-1.3-1.3-2.5c0,1.2-0.5,2-1.3,2.5C113.5,55.2,114,56,114,57.1z"
		/>
	<path class="st2" d="M91.6,28.6c0.1-1.2,0.5-2,1.3-2.5c-0.8-0.5-1.2-1.3-1.3-2.4c0,1.1-0.5,2-1.3,2.4
		C91.1,26.7,91.6,27.5,91.6,28.6z"/>
	<path class="st2" d="M32.4,32.4c0-0.7,0.3-1.2,0.8-1.5c-0.5-0.3-0.8-0.8-0.8-1.5c0,0.7-0.3,1.2-0.8,1.5
		C32.1,31.2,32.4,31.7,32.4,32.4z"/>
	<path class="st2" d="M27.7,45.9c0-0.7,0.3-1.2,0.8-1.5c-0.5-0.3-0.8-0.8-0.8-1.5c0,0.7-0.3,1.2-0.8,1.5
		C27.4,44.6,27.7,45.1,27.7,45.9z"/>
	<path class="st2" d="M9.9,83.7c0-0.7,0.3-1.2,0.8-1.5c-0.5-0.3-0.8-0.8-0.8-1.5c0,0.7-0.3,1.2-0.8,1.5C9.6,82.5,9.9,83,9.9,83.7z"
		/>
	<path class="st2" d="M19.3,110.1c0-0.7,0.3-1.2,0.8-1.5c-0.5-0.3-0.8-0.8-0.8-1.5c0,0.7-0.3,1.2-0.8,1.5
		C19,108.9,19.2,109.4,19.3,110.1z"/>
	<path class="st2" d="M113.5,86.2c0-0.7,0.3-1.2,0.8-1.5c-0.5-0.3-0.8-0.8-0.8-1.5c0,0.7-0.3,1.2-0.8,1.5
		C113.2,84.9,113.5,85.5,113.5,86.2z"/>
	<path class="st2" d="M107.7,71.2c0-0.7,0.3-1.2,0.8-1.5c-0.5-0.3-0.8-0.8-0.8-1.5c0,0.7-0.3,1.2-0.8,1.5
		C107.4,70,107.7,70.5,107.7,71.2z"/>
	<path class="st2" d="M121.3,71.2c0-0.7,0.3-1.2,0.8-1.5c-0.5-0.3-0.8-0.8-0.8-1.5c0,0.7-0.3,1.2-0.8,1.5
		C121,70,121.3,70.5,121.3,71.2z"/>
	<path class="st2" d="M101.3,51.2c0-0.7,0.3-1.2,0.8-1.5c-0.5-0.3-0.8-0.8-0.8-1.5c0,0.7-0.3,1.2-0.8,1.5
		C101,49.9,101.3,50.4,101.3,51.2z"/>
	<path class="st2" d="M67.8,25.8c0-0.7,0.3-1.2,0.8-1.5c-0.5-0.3-0.8-0.8-0.8-1.5c0,0.7-0.3,1.2-0.8,1.5
		C67.5,24.5,67.8,25,67.8,25.8z"/>
	<g>
		<path class="st4" d="M43.4,116c-2.7-0.1-5.5-0.9-8.2-2.4c-2.8-1.6-5.3-3.9-7.3-6.6c-0.4-0.5-0.6-1.2-0.4-1.9
			c0.1-0.7,0.5-1.3,1-1.6c0.4-0.3,0.9-0.5,1.5-0.5c0.2,0,0.3,0,0.5,0.1c0-0.2,0-0.3,0-0.5V85.1c0-0.2,0-0.3,0-0.5
			c-0.2,0-0.3,0-0.5,0c-0.5,0-1.1-0.2-1.5-0.5c-0.5-0.4-0.9-1-1-1.6c-0.1-0.7,0-1.3,0.4-1.9c2-2.7,4.5-5,7.3-6.6
			c2.6-1.5,5.5-2.3,8.2-2.4l0.3,0c1.6,0,3.2,0.3,4.6,0.8c0.3-2.7,0.8-5.9,1.8-8.9c1.2-3.4,2.9-5.7,5.1-6.9c0.3-0.1,0.5-0.3,0.8-0.4
			c-1.9-2.9-3-6.4-3-9.9c0-10,8.1-18.1,18.1-18.1c5.3,0,10.4,2.3,13.8,6.4l0.4,0.4c2.6,3.2,3.9,7.1,3.9,11.2c0,4-1.4,8-3.9,11.2
			l-0.1,0.1c-0.1,0.1-0.2,0.2-0.3,0.3c-3,3.6-7.2,5.8-11.9,6.3c0.5,1,0.9,2.1,1.2,3.3c0.3,1-0.1,2-0.9,2.6c0.2,0.7,0.5,1.3,0.7,1.9
			c0.4,0.9,0.8,1.7,1.2,2.4c1,0.2,1.8,0.6,2.5,1.2c0.7,0.5,1.2,1.1,1.5,1.9c9,2.4,16.5,7.3,22.5,14.6c0.4,0.4,0.6,1,0.6,1.7
			c0,0.6-0.2,1.2-0.6,1.7c-7.3,8.9-17.3,14.4-28.9,15.8c-1.9,0.2-3.9,0.3-5.9,0.3c-4,0-8.2-0.5-12.3-1.4c-0.9,1.3-2,2.4-3.3,3.3
			c-2.3,1.6-5,2.5-7.8,2.5L43.4,116z M35.6,104.4c0.4,0,0.8,0.1,1.2,0.1c0.4,0,0.7,0,1.1,0c0.3,0,0.7-0.1,1-0.1
			c-0.3-0.2-0.6-0.3-0.9-0.5L35.6,104.4z M38,83.9c0.3-0.2,0.6-0.3,0.9-0.5c-0.3-0.1-0.6-0.1-1-0.1c-0.4,0-0.7-0.1-1.1-0.1
			c-0.4,0-0.7,0-1.1,0L38,83.9z"/>
		<path class="st2" d="M54.3,109.1c-0.9,1.4-2.1,2.6-3.4,3.6c-2.2,1.6-4.8,2.3-7.5,2.3c-2.7-0.1-5.4-0.9-7.7-2.2
			c-2.8-1.5-5.1-3.8-7-6.3c-0.5-0.7-0.3-1.6,0.3-2.1c0.4-0.3,1-0.4,1.5-0.1c2.2,1,4.9,1.5,7.4,1.3c1.2-0.1,2.5-0.4,3.5-1
			c-1.1-0.6-2.3-1.1-3.4-1.8l-4.7,1.3c-0.1,0-0.3,0.1-0.4,0.1c-0.8,0-1.5-0.7-1.5-1.5V85.1c0-0.1,0-0.3,0.1-0.4
			c0.2-0.8,1-1.3,1.8-1.1l4.8,1.3c1.1-0.6,2.3-1.2,3.4-1.8c-1.1-0.6-2.3-0.9-3.5-1c-2.5-0.2-5.2,0.3-7.4,1.3
			c-0.5,0.2-1.1,0.2-1.5-0.1c-0.7-0.5-0.8-1.4-0.3-2.1c1.8-2.6,4.2-4.8,7-6.3c2.3-1.3,5-2.2,7.7-2.2c2,0,4,0.4,5.8,1.3
			c0.3-3.4,0.8-6.9,1.9-10c0.8-2.4,2.2-5.1,4.6-6.3c0.7-0.3,1.4-0.6,2.1-0.7c-2.4-3-3.7-6.7-3.7-10.6c0-9.4,7.6-17.1,17.1-17.1
			c5,0,9.8,2.2,13,6.1c0.1,0.1,0.2,0.3,0.3,0.4c2.4,3,3.7,6.7,3.7,10.6c0,3.8-1.3,7.6-3.7,10.6c-0.1,0.1-0.2,0.3-0.3,0.4
			c-2.9,3.4-7,5.6-11.5,6c-0.4,0-0.9,0.1-1.3,0.1c0.9,1.3,1.6,2.9,2,4.5c0.2,0.7-0.2,1.5-0.9,1.7l-0.2,0.1c0.3,1,0.6,1.9,1,2.8
			c0.4,1,0.9,2,1.5,2.9c0.9,0.2,1.8,0.5,2.5,1.1c0.6,0.5,1.1,1.2,1.4,1.9c9,2.3,16.6,7.2,22.4,14.4c0.3,0.3,0.4,0.6,0.4,1
			c0,0.4-0.1,0.7-0.4,1c-7.2,8.8-16.9,14.1-28.2,15.4C66.6,111,60.3,110.5,54.3,109.1z"/>
		<path class="st5" d="M29.9,82.2c4.6-2.1,11.1-2.3,14.4,1.4c3-1.3,6.1-2.4,9.2-3.2C48.1,70.7,36.2,73.4,29.9,82.2z"/>
		<path class="st6" d="M52.7,80.6c-5.4-5-15.5-3.6-21.7,1.1c-0.4,0.1-0.8,0.3-1.1,0.5c6.3-8.8,18.2-11.5,23.6-1.8
			C53.3,80.4,53,80.5,52.7,80.6z"/>
		<path class="st5" d="M29.9,105.5c4.6,2.1,11.1,2.3,14.4-1.4c3,1.3,6.1,2.4,9.2,3.2C48.1,117,36.2,114.3,29.9,105.5z"/>
		<path class="st6" d="M52.7,107.1c-5.4,5-15.5,3.6-21.7-1.1c-0.4-0.1-0.8-0.3-1.1-0.5c6.3,8.8,18.2,11.5,23.6,1.8
			C53.3,107.3,53,107.2,52.7,107.1z"/>
		<path class="st4" d="M38.3,101.1c19.8,11.3,46,12,61.6-7.3c-15.6-19.3-41.7-18.6-61.6-7.3V101.1z"/>
		<path class="st7" d="M70.8,88.6c0.4-3-2.3-6.2-5.7-9.5c0-0.2,0-0.3,0-0.5c-3.5,0.1-6.9,0.6-10.4,1.4c0.4,0.2,0.8,0.5,1.2,0.7
			c2.6,1.5,5.1,3.4,6.5,5.1c2.2,2.7,0.1,5.7-1.6,8.7c-2.4,3.6,13.1,8.8,6.3,0.5c1.1-0.9,1.9-2,2.7-3.3c-0.1-0.1-0.2-0.2-0.3-0.3
			C70.2,90.4,70.7,89.4,70.8,88.6z"/>
		<path class="st7" d="M52.5,100.9C42.4,96.8,42,85.6,51.7,81.5c1.7-0.7,3.3-1.3,5.1-1.9c-6.4,1.3-12.7,3.7-18.4,7v14.5
			c19.8,11.3,46,12,61.6-7.3c-0.7-0.9-1.4-1.7-2.2-2.5C86.1,105.8,68,107.3,52.5,100.9z"/>
		<path class="st8" d="M99.9,93.3c0.3,0,0.5,0.2,0.5,0.5c0,0.3-0.2,0.5-0.5,0.5H38.3c-0.3,0-0.5-0.2-0.5-0.5c0-0.3,0.2-0.5,0.5-0.5
			H99.9z"/>
		<polygon class="st7" points="38.3,101.1 38.3,86.6 32.9,85.1 32.9,102.5 		"/>
		<path class="st8" d="M38.3,89.1c0.3,0,0.5,0.2,0.5,0.5c0,0.3-0.2,0.5-0.5,0.5h-5.4c-0.3,0-0.5-0.2-0.5-0.5c0-0.3,0.2-0.5,0.5-0.5
			H38.3z"/>
		<path class="st8" d="M38.3,97.6c0.3,0,0.5,0.2,0.5,0.5c0,0.3-0.2,0.5-0.5,0.5h-5.4c-0.3,0-0.5-0.2-0.5-0.5c0-0.3,0.2-0.5,0.5-0.5
			H38.3z"/>
		<path class="st8" d="M38.3,93.3c0.3,0,0.5,0.2,0.5,0.5c0,0.3-0.2,0.5-0.5,0.5h-5.4c-0.3,0-0.5-0.2-0.5-0.5c0-0.3,0.2-0.5,0.5-0.5
			H38.3z"/>
		<path class="st8" d="M72.7,109.3c-11.6,1.4-24-1.7-34.6-7.7c-0.2-0.1-0.3-0.3-0.3-0.4V86.6c0-0.2,0.1-0.3,0.3-0.4
			c10.6-6.1,23-9.1,34.6-7.7c10.4,1.2,20.2,5.9,27.6,15.1c0.2,0.2,0.2,0.4,0,0.6C92.8,103.3,83,108,72.7,109.3z M38.8,100.8
			c10.4,5.9,22.4,8.8,33.8,7.4c10-1.2,19.5-5.7,26.7-14.4C92,85.1,82.6,80.6,72.6,79.4c-11.3-1.3-23.4,1.6-33.8,7.5V100.8z"/>
		<path class="st8" d="M38.8,86.6v14.5c0,0.2-0.1,0.4-0.4,0.5l-5.4,1.4c-0.1,0-0.1,0-0.2,0c-0.3,0-0.5-0.2-0.5-0.5V85.1
			c0,0,0-0.1,0-0.1c0.1-0.3,0.3-0.4,0.6-0.3l5.4,1.4C38.6,86.1,38.8,86.3,38.8,86.6z M37.8,100.7V87l-4.4-1.2v16.1L37.8,100.7z"/>
		<path class="st8" d="M38.1,81.2c-2.7-0.3-5.5,0.3-7.9,1.4c-0.2,0.1-0.3,0.1-0.5-0.1c-0.2-0.2-0.3-0.5-0.1-0.7
			c1.8-2.6,4.2-4.6,6.6-6c2.3-1.3,4.8-2.1,7.2-2.1c2.4-0.1,4.8,0.6,6.9,2.1c1.4,1,2.7,2.4,3.7,4.3c0,0,0.1,0.1,0.1,0.1
			c0.1,0.3-0.1,0.5-0.4,0.6c-1.6,0.4-3.1,0.9-4.6,1.4c-1.5,0.5-3,1.1-4.5,1.8c-0.2,0.1-0.4,0.1-0.6-0.1
			C42.5,82.3,40.4,81.4,38.1,81.2z M31.5,81c2.1-0.7,4.5-1,6.7-0.8c2.4,0.2,4.7,1.1,6.3,2.7c1.4-0.6,2.8-1.2,4.3-1.7
			c1.3-0.5,2.7-0.9,4-1.2c-0.9-1.4-2-2.6-3.1-3.4c-1.9-1.3-4-1.9-6.3-1.9c-2.3,0-4.6,0.7-6.8,2C34.8,77.8,33,79.2,31.5,81z"/>
		<path class="st8" d="M38.2,107.4c-2.2,0.2-4.6-0.1-6.7-0.8c1.5,1.8,3.3,3.3,5.2,4.3c2.2,1.2,4.5,1.9,6.8,2c2.2,0,4.4-0.6,6.3-1.9
			c1.2-0.8,2.2-2,3.1-3.4c-1.4-0.4-2.7-0.8-4-1.2c-1.4-0.5-2.9-1.1-4.3-1.7C42.9,106.4,40.6,107.2,38.2,107.4z M30.1,105.1
			c2.4,1.1,5.3,1.6,7.9,1.4c2.3-0.2,4.5-1,5.9-2.6c0.2-0.2,0.4-0.2,0.6-0.1c1.5,0.6,3,1.2,4.5,1.8c1.5,0.5,3.1,1,4.6,1.4
			c0.3,0.1,0.4,0.3,0.4,0.6c0,0.1,0,0.1-0.1,0.1c-1,1.8-2.3,3.3-3.7,4.3c-2.1,1.5-4.4,2.1-6.9,2.1c-2.4-0.1-4.9-0.8-7.2-2.1
			c-2.5-1.4-4.8-3.5-6.6-6c-0.2-0.2-0.1-0.5,0.1-0.7C29.8,105,30,105,30.1,105.1z"/>
		<path class="st4" d="M71.1,62.5c8.9,0,16.1-7.2,16.1-16.1c0-8.8-7.2-16.1-16.1-16.1c-8.8,0-16.1,7.2-16.1,16.1
			C55,55.3,62.2,62.5,71.1,62.5z"/>
		<path class="st2" d="M71.1,49.1l12.6,7.3c2.2-2.7,3.5-6.2,3.5-9.9c0-3.8-1.3-7.2-3.5-10l-12.6,7.3c1.5,0,2.7,1.2,2.7,2.7
			C73.7,47.9,72.6,49.1,71.1,49.1z"/>
		<path class="st4" d="M60.9,58.9c-2.8,4-4.7,9.1-5.5,15.4c-0.5,3.9-0.6,4.1,2.6,6c2.6,1.5,5.1,3.4,6.5,5.1c0.9,1.1,1.2,2.2,1.1,3.3
			c2.3,0.3,4.3,1,5.9,2.3c0.6-1.1,1.1-2.2,1.2-3c0.4-3-2.3-6.2-5.7-9.4c0.3-5.4,1.1-10.8,2.8-16.2C66.5,62.2,63.4,60.9,60.9,58.9z"
			/>
		<path class="st4" d="M60.9,58.9c-9.2-3.2-10.1,12.7-10.5,17.7c1.2,0.9,2.2,2.2,3.1,3.8c1.1-0.3,2.2-0.5,3.3-0.8
			c-2.1-1.3-2-1.9-1.5-5.3C56.2,68,58.1,62.9,60.9,58.9z"/>
		<path class="st4" d="M71.9,91.3c-1.8-1.6-4.1-2.4-6.7-2.6c-0.4,2-1.3,3.8-2.2,5.5c-2.4,3.6,13.1,8.8,6.3,0.5
			C70.3,93.7,71.2,92.6,71.9,91.3z"/>
		<path class="st7" d="M76.6,40.6c10.5-3.7,10.2,9.3,5.5,14.9l1.6,0.9c2.2-2.7,3.5-6.2,3.5-9.9c0-3.8-1.3-7.2-3.5-10L76.6,40.6z"/>
		<path class="st7" d="M72.5,62.4c-6.8-0.7-12.2-7.6-12.2-16c0-7.8,4.6-14.3,10.7-15.7v-0.3c-8.9,0-16.1,7.2-16.1,16.1
			c0,5,2.3,9.5,5.9,12.4c1.8,1.4,3.8,2.5,6.1,3.1c0.1,0,0.1,0,0.2,0.1c0.9,0.2,1.8,0.4,2.7,0.4c0.4,0,0.8,0,1.2,0
			C71.6,62.5,72,62.5,72.5,62.4z"/>
		<path class="st7" d="M71.5,43.8c-0.2,0-0.3,0-0.5,0c-1.5,0-2.7,1.2-2.7,2.7c0,1.5,1.2,2.7,2.7,2.7c0.2,0,0.3,0,0.5,0
			C69.5,48.5,69.5,44.3,71.5,43.8z"/>
		<path class="st4" d="M60.9,58.9c-9.2-3.2-10.1,12.7-10.5,17.7c1.2,0.9,2.2,2.2,3.1,3.8c1.1-0.3,2.2-0.5,3.3-0.8
			c-2.1-1.3-2-1.9-1.5-5.3C56.2,68,58.1,62.9,60.9,58.9z"/>
		<path class="st7" d="M55.1,80c-3.3-8.2-1.4-21.3,4-21.5c-7.5-0.6-8.3,13.4-8.6,18.1c1.2,0.9,2.2,2.2,3.1,3.8
			C54.1,80.2,54.6,80.1,55.1,80z"/>
		<path class="st7" d="M59.3,73.2c0.6-5.1,1.8-9.3,3.7-12.9c-0.7-0.4-1.4-0.9-2-1.4c-2.8,4-4.7,9.1-5.5,15.4c-0.5,3.9-0.6,4.1,2.6,6
			c2.6,1.5,5.1,3.4,6.5,5.1c0.9,1.1,1.2,2.2,1.1,3.3c2.3,0.3,4.3,1,5.9,2.3c0.4-0.8,0.8-1.6,1.1-2.3c-1.1-0.8-2.5-1.4-3.7-1.6
			c-1.2-0.3-0.7-1-1.2-2.3c-0.9-2.2-4.5-4.9-6.2-5.9C58.8,77.1,58.8,76.9,59.3,73.2z"/>
		<path class="st7" d="M71.9,91.3c-1.8-1.6-4.1-2.4-6.7-2.6c-0.4,2-1.3,3.8-2.2,5.5c-0.9,1.4,0.8,3,2.9,4c-1.1-0.9-1.7-2.2-0.9-3.8
			c1.4-2.9,2-5.3,6.3-1.8C71.5,92.1,71.7,91.7,71.9,91.3z"/>
		<path class="st8" d="M71.2,92.5c0.1,0.1,0.1,0.2,0,0.3c-0.1,0.1-0.2,0.1-0.3,0c-0.8-0.7-1.8-1.2-2.8-1.6c-1-0.4-2.1-0.7-3.3-0.8
			c-0.1,0-0.2-0.1-0.2-0.3c0-0.1,0.1-0.2,0.3-0.2c1.2,0.1,2.4,0.4,3.5,0.8C69.3,91.2,70.3,91.8,71.2,92.5z"/>
		<path class="st8" d="M82.1,35.4c-2.8-2.8-6.7-4.6-11-4.6c-4.3,0-8.2,1.7-11,4.6c-2.8,2.8-4.6,6.7-4.6,11s1.7,8.2,4.6,11
			c2.8,2.8,6.7,4.6,11,4.6c4.3,0,8.2-1.7,11-4.6c2.8-2.8,4.6-6.7,4.6-11S84.9,38.2,82.1,35.4z M71.1,29.9c4.6,0,8.7,1.9,11.7,4.8
			c3,3,4.8,7.1,4.8,11.7s-1.9,8.7-4.8,11.7c-3,3-7.1,4.8-11.7,4.8s-8.7-1.9-11.7-4.8c-3-3-4.8-7.1-4.8-11.7s1.9-8.7,4.8-11.7
			C62.4,31.7,66.5,29.9,71.1,29.9z"/>
		<path class="st8" d="M72.6,44.9c-0.4-0.4-0.9-0.6-1.6-0.6c-0.6,0-1.1,0.2-1.5,0.6c-0.4,0.4-0.6,0.9-0.6,1.6c0,0.6,0.2,1.1,0.6,1.5
			c0.4,0.4,0.9,0.6,1.5,0.6c0.6,0,1.2-0.3,1.6-0.6c0.4-0.4,0.6-0.9,0.6-1.5C73.2,45.8,73,45.3,72.6,44.9z M71.1,43.2
			c0.9,0,1.7,0.4,2.3,0.9c0.6,0.6,0.9,1.4,0.9,2.3c0,0.9-0.4,1.7-0.9,2.3c-0.6,0.6-1.4,0.9-2.3,0.9c-0.9,0-1.7-0.4-2.3-0.9
			c-0.6-0.6-0.9-1.4-0.9-2.3c0-0.9,0.4-1.7,0.9-2.3C69.4,43.6,70.2,43.2,71.1,43.2z"/>
		<path class="st8" d="M83.4,56.8l-12.6-7.2c-0.2-0.1-0.3-0.3-0.3-0.5c0-0.3,0.2-0.5,0.5-0.5c0.6,0,1.2-0.3,1.6-0.6
			c0.4-0.4,0.6-0.9,0.6-1.5c0-0.6-0.2-1.2-0.6-1.6c-0.4-0.4-0.9-0.6-1.6-0.6c-0.2,0-0.3-0.1-0.4-0.3c-0.1-0.2-0.1-0.5,0.2-0.7
			L83.4,36c0.2-0.1,0.5-0.1,0.6,0.1c1.1,1.4,2,3.1,2.6,4.8c0.6,1.7,0.9,3.5,0.9,5.4c0,1.9-0.3,3.7-0.9,5.4c-0.6,1.8-1.5,3.4-2.6,4.8
			C83.9,56.9,83.6,56.9,83.4,56.8z M72.4,49.3l11.1,6.4c0.9-1.3,1.7-2.7,2.2-4.2c0.6-1.6,0.9-3.3,0.9-5.1c0-1.8-0.3-3.5-0.9-5.1
			c-0.5-1.5-1.3-2.9-2.2-4.2l-11.1,6.4c0.3,0.2,0.6,0.4,0.9,0.6c0.6,0.6,0.9,1.4,0.9,2.3c0,0.9-0.4,1.7-0.9,2.3
			C73.1,48.9,72.7,49.2,72.4,49.3z"/>
		<path class="st2" d="M71.1,47.5c0.6,0,1.1-0.5,1.1-1.1c0-0.6-0.5-1.1-1.1-1.1c-0.6,0-1.1,0.5-1.1,1.1C70,47,70.5,47.5,71.1,47.5z"
			/>
		<path class="st8" d="M56.9,65.6c0.9-2.6,2.1-4.9,3.6-7c0,0,0,0,0,0c0.2-0.2,0.5-0.3,0.7-0.1c1.2,1,2.6,1.8,4.1,2.4
			c1.4,0.6,3,0.9,4.6,1.1c0,0,0.1,0,0.1,0c0.3,0.1,0.4,0.4,0.3,0.6c-0.8,2.7-1.4,5.3-1.8,8c-0.4,2.6-0.7,5.2-0.9,7.8
			c1.7,1.6,3.2,3.2,4.2,4.7c1.1,1.7,1.7,3.3,1.5,5c-0.1,0.4-0.2,0.9-0.4,1.4c-0.2,0.5-0.5,1.1-0.8,1.7c0,0,0,0.1-0.1,0.1
			c-0.2,0.2-0.5,0.3-0.7,0.1c-0.8-0.6-1.7-1.1-2.6-1.5c-0.9-0.4-2-0.6-3.1-0.8c-0.3,0-0.5-0.3-0.4-0.5c0-0.5,0-0.9-0.2-1.4
			c-0.2-0.5-0.4-1-0.9-1.5c-0.7-0.8-1.6-1.7-2.7-2.5c-1.1-0.9-2.4-1.7-3.7-2.5c-3.5-2-3.5-2.2-2.9-6.2l0-0.3
			C55.3,71.1,56,68.2,56.9,65.6z M61,59.6c-1.3,1.9-2.3,4-3.1,6.3c-0.9,2.5-1.6,5.4-2,8.4l0,0.3c-0.4,3.4-0.5,3.6,2.4,5.2
			c1.4,0.8,2.7,1.6,3.8,2.5c1.1,0.9,2.1,1.8,2.8,2.7c0.5,0.6,0.8,1.2,1,1.8c0.2,0.5,0.2,0.9,0.2,1.3c1,0.2,2,0.4,2.9,0.8
			c0.9,0.3,1.6,0.8,2.4,1.3c0.2-0.4,0.4-0.8,0.5-1.1c0.2-0.4,0.3-0.8,0.3-1.2c0.2-1.4-0.3-2.8-1.3-4.3c-1-1.5-2.5-3.1-4.2-4.7
			c-0.1-0.1-0.2-0.3-0.2-0.4c0.2-2.7,0.5-5.4,0.9-8.1c0.4-2.5,1-5,1.7-7.6c-1.5-0.2-2.9-0.5-4.3-1.1C63.5,61.3,62.2,60.5,61,59.6z"
			/>
		<path class="st8" d="M52,64.3c1.5-4.4,4.2-7.6,9.1-5.9c0,0,0.1,0,0.1,0.1c0.2,0.2,0.3,0.5,0.1,0.7c-1.4,2-2.5,4.2-3.4,6.7
			c-0.9,2.5-1.6,5.4-2,8.4l0,0.3c-0.4,2.9-0.5,3.5,1.3,4.6c0.1,0.1,0.2,0.2,0.2,0.3c0.1,0.3-0.1,0.5-0.4,0.6
			c-0.6,0.1-1.1,0.2-1.6,0.3c-0.6,0.1-1.1,0.3-1.6,0.4c-0.2,0.1-0.4,0-0.6-0.2c-0.4-0.7-0.9-1.4-1.4-2c-0.5-0.6-1-1.1-1.6-1.6
			c-0.1-0.1-0.2-0.3-0.2-0.4l0-0.5C50.2,73.3,50.6,68.3,52,64.3z M60.1,59.2c-3.8-1-5.9,1.8-7.2,5.4c-1.4,3.9-1.7,8.8-2,11.5l0,0.2
			c0.6,0.5,1.1,1,1.6,1.6c0.4,0.5,0.9,1.2,1.3,1.8c0.4-0.1,0.9-0.2,1.3-0.3c0.2,0,0.4-0.1,0.5-0.1c-1.3-1.1-1.2-2-0.8-4.8l0-0.3
			c0.4-3.2,1.1-6,2-8.6C57.8,63.2,58.9,61.1,60.1,59.2z"/>
		<path class="st8" d="M69,89c1.2,0.5,2.3,1.1,3.2,1.9c0.2,0.2,0.2,0.4,0.1,0.6c-0.4,0.7-0.8,1.3-1.3,1.9c-0.4,0.4-0.7,0.9-1.1,1.2
			c1.8,2.3,1.9,3.7,1,4.4c-0.6,0.5-1.8,0.6-3.1,0.3c-1.2-0.3-2.5-0.9-3.6-1.6c-1.6-1.1-2.6-2.5-1.7-3.9c0.5-0.8,0.9-1.7,1.3-2.6
			c0.4-0.9,0.7-1.8,0.9-2.8c0.1-0.2,0.3-0.4,0.5-0.4C66.6,88.3,67.9,88.5,69,89z M71.3,91.4c-0.8-0.6-1.7-1.1-2.6-1.5
			c-0.9-0.4-2-0.6-3.1-0.8c-0.2,0.9-0.5,1.7-0.9,2.5c-0.4,0.9-0.8,1.8-1.3,2.6c0,0,0,0.1-0.1,0.1c-0.5,0.8,0.3,1.7,1.4,2.5
			c1,0.6,2.2,1.2,3.3,1.4c1,0.2,1.9,0.3,2.3-0.1c0.4-0.4,0.2-1.4-1.5-3.4c-0.2-0.2-0.1-0.5,0.1-0.7c0.5-0.4,1-0.9,1.4-1.4
			C70.7,92.4,71,91.9,71.3,91.4z"/>
		<path class="st4" d="M71.8,68.3c-2.1-8.5-10.4-9.4-6.5,2.7C67.5,70.1,69.6,69.2,71.8,68.3z"/>
		<path class="st4" d="M70.4,68.9c0.7,2.8,1.8,5.6,3.4,8c1.8,0.1,3.3,1.1,3.6,2.8h0c-2.4-0.6-4.9-0.9-7.3-1c-1.4-2.2-3-5.3-3.7-8.1
			L70.4,68.9z"/>
		<path class="st7" d="M71.8,68.3c-0.1-0.4-0.2-0.7-0.3-1.1c-6.9,3.5-6.6-2.9-4.6-5.3c-2.2-0.3-3.8,2.4-1.6,9.1L71.8,68.3z"/>
		<path class="st8" d="M64.9,69.6c-0.1,0.1-0.3,0-0.3-0.1c-0.1-0.1,0-0.3,0.1-0.3l6.5-2.7c0.1-0.1,0.3,0,0.3,0.1
			c0.1,0.1,0,0.3-0.1,0.3L64.9,69.6z"/>
		<path class="st7" d="M71.8,78.8c-2.6-5-3.8-6.5-1-8.4c-0.1-0.5-0.3-1-0.4-1.5l-4.1,1.7c0.7,2.8,2.3,5.9,3.7,8.1
			C70.6,78.7,71.2,78.8,71.8,78.8z"/>
		<path class="st8" d="M68,61.8c1.7,0.8,3.4,3.1,4.3,6.4h0c0.1,0.2-0.1,0.5-0.3,0.6l-6.5,2.7c0,0,0,0-0.1,0
			c-0.3,0.1-0.5-0.1-0.6-0.3c-1.4-4.2-1.3-7-0.4-8.4c0.4-0.7,1-1.1,1.6-1.3C66.6,61.3,67.3,61.4,68,61.8z M71.2,68
			c-0.8-2.8-2.3-4.7-3.6-5.4c-0.5-0.2-1-0.3-1.4-0.2c-0.4,0.1-0.7,0.3-0.9,0.8c-0.7,1.2-0.7,3.5,0.4,7.1L71.2,68z"/>
		<path class="st8" d="M71.3,73.4c-0.5-1.2-1-2.5-1.3-3.8l-3.1,1.3c0.3,1.1,0.8,2.3,1.3,3.5c0.6,1.4,1.4,2.7,2.1,3.8
			c1.2,0.1,2.4,0.2,3.5,0.4c1,0.1,1.9,0.3,2.9,0.5c-0.2-0.4-0.4-0.7-0.7-0.9c-0.6-0.4-1.3-0.7-2.2-0.7c-0.2,0-0.3-0.1-0.4-0.2
			C72.6,76,71.9,74.7,71.3,73.4z M70.9,68.8c0.3,1.4,0.8,2.9,1.4,4.2c0.5,1.2,1.1,2.4,1.8,3.4c0.9,0.1,1.8,0.4,2.5,0.9
			c0.7,0.6,1.2,1.3,1.3,2.3c0,0.3-0.1,0.5-0.4,0.5v0c-0.1,0-0.2,0-0.2,0c-1.2-0.3-2.4-0.5-3.6-0.7c-1.2-0.2-2.5-0.3-3.7-0.4
			c-0.2,0-0.3-0.1-0.4-0.2c-0.8-1.2-1.6-2.6-2.3-4.2c-0.6-1.3-1.1-2.7-1.5-4.1c-0.1-0.3,0.1-0.5,0.3-0.6l4.1-1.7
			C70.4,68.3,70.7,68.5,70.9,68.8C70.8,68.7,70.8,68.8,70.9,68.8L70.9,68.8z"/>
		<g>
			<path class="st26" d="M19.2,90.5c-0.7,0.3-1.3,0.7-1.9,1.1c-0.6,0.4-1.2,0.7-2.1,0.3c-0.4-0.2-0.8-0.1-1.1,0.2
				c-0.3,0.3-0.4,0.8-0.2,1.1c0.8,1.7,2.2,2.3,3.5,2.5c0,0,0,0,0,0c-0.2,0.4-0.1,0.9,0.2,1.2c2.2,2.1,5,2.5,8,1.2
				c1.9-0.8,2.9-2.5,2.9-4.2c0-1.7-0.9-3.4-2.9-4.3c-2.4-1-4.3-0.8-6,0.2C19.4,89.8,19.2,90.1,19.2,90.5L19.2,90.5z"/>
			<path class="st27" d="M14.8,92.7c1.6,3.2,5.4,1.3,5.8,3.1c-0.7,0.4-1.5,0.5-2.3,0.4c1.9,1.8,4.3,2.1,6.9,1c3-1.3,3.2-5.3,0-6.8
				c-2-0.9-3.7-0.7-5,0.1c0.4,0.1,0.8,0.2,1.1,0.5C18.1,91.1,17.6,94,14.8,92.7L14.8,92.7z"/>
			<path class="st28" d="M18.6,93.9c2.9-0.3,3.5,1.6,6.1,1.7c2.5,0.1,3-3.6,0-4.1c-1.1-0.2-2.1,0.1-3.1,0.7c0.7,0,1.3,0.3,1.7,0.8
				C21.5,92.7,19.9,93,18.6,93.9L18.6,93.9z M21.8,90.6c1-0.1,1.9,0,2.8,0.3C24,90.3,22.7,90.3,21.8,90.6L21.8,90.6z M20.6,96.6
				c1.3,0.3,2.4,0.2,3.4-0.4C23.3,97.1,21.8,97.3,20.6,96.6L20.6,96.6z"/>
		</g>
	</g>
</g>
</svg>
