<?xml version="1.0" encoding="utf-8"?>
<!-- Generator: Adobe Illustrator 26.0.1, SVG Export Plug-In . SVG Version: 6.00 Build 0)  -->
<svg version="1.1" id="Livello_1" xmlns="http://www.w3.org/2000/svg" xmlns:xlink="http://www.w3.org/1999/xlink" x="0px" y="0px"
	 viewBox="0 0 346.5 265.4" style="enable-background:new 0 0 346.5 265.4;" xml:space="preserve">
<style type="text/css">
	.st0{fill:#F4A055;}
	.st1{fill-rule:evenodd;clip-rule:evenodd;fill:#F4A055;}
	.st2{fill-rule:evenodd;clip-rule:evenodd;fill:#000F2A;}
	.st3{fill:#1D1D1B;}
	.st4{fill-rule:evenodd;clip-rule:evenodd;fill:#FFFFFF;}
	.st5{fill-rule:evenodd;clip-rule:evenodd;fill:#7370AC;}
	.st6{fill-rule:evenodd;clip-rule:evenodd;fill:#4D4B73;}
	.st7{fill-rule:evenodd;clip-rule:evenodd;fill:#C9C9C9;}
	.st8{fill:#000F2A;}
	.st9{fill-rule:evenodd;clip-rule:evenodd;fill:#F8C544;}
	.st10{fill-rule:evenodd;clip-rule:evenodd;fill:#D13D2A;}
	.st11{fill-rule:evenodd;clip-rule:evenodd;fill:#AE3727;}
	.st12{fill-rule:evenodd;clip-rule:evenodd;fill:none;stroke:#000000;stroke-miterlimit:10;}
	.st13{fill-rule:evenodd;clip-rule:evenodd;fill:#0C1429;}
	.st14{fill-rule:evenodd;clip-rule:evenodd;fill:#F8C342;}
	.st15{fill-rule:evenodd;clip-rule:evenodd;fill:#D23C28;}
	.st16{fill-rule:evenodd;clip-rule:evenodd;fill:#AE3726;}
	.st17{fill-rule:evenodd;clip-rule:evenodd;fill:#CAC8C7;}
	.st18{fill:#0C1429;}
	.st19{fill:#F2944F;}
	.st20{fill:#F08EAC;}
	.st21{fill:#8BBE3D;}
	.st22{fill:#7370AC;}
	.st23{fill:#E63555;}
	.st24{fill:#FFFFFF;}
	.st25{fill-rule:evenodd;clip-rule:evenodd;fill:none;stroke:#F4A055;stroke-miterlimit:10;}
	.st26{fill-rule:evenodd;clip-rule:evenodd;fill:#0B1429;}
	.st27{fill-rule:evenodd;clip-rule:evenodd;fill:#E63555;}
	.st28{fill-rule:evenodd;clip-rule:evenodd;fill:#F2944F;}
</style>
<g>
	<g>
		<path class="st0" d="M207.4,52c-6.9,25.1-13.8,50.1-20.7,75.3c-18.2-17.9-36.3-35.8-54.6-53.7C157.2,66.3,182.3,59.2,207.4,52z"/>
		<path class="st0" d="M207.6,50.1c-25.2,7.2-50.2,14.3-75.3,21.5c1.4-2.5,2.7-4.8,4-7.2c7.7-13.7,15.3-27.5,22.9-41.2
			c0.4-0.7,0.7-0.8,1.4-0.4c15.3,8.9,30.6,17.7,45.9,26.5C206.9,49.6,207.2,49.8,207.6,50.1z"/>
		<path class="st0" d="M209.4,51.3c2.3,4,4.6,7.9,6.8,11.7c7.1,12.2,14.2,24.5,21.4,36.7c0.4,0.7,0.2,0.8-0.3,1.1
			c-16,8.6-31.9,17.3-47.8,25.9c-0.3,0.1-0.5,0.3-0.9,0.5C195.5,101.9,202.5,76.7,209.4,51.3z"/>
		<path class="st0" d="M131.5,75.4c18,17.7,35.8,35.3,53.8,53c-18.6,0.6-37.1,1.2-55.5,1.9C130.4,112,131,93.8,131.5,75.4z"/>
		<path class="st0" d="M238.8,102.2c-15.1,15.1-30.2,30.1-45.5,45.3c-0.9-3.2-1.8-6.3-2.7-9.4c-0.7-2.6-1.5-5.1-2.2-7.7
			c-0.2-0.7-0.1-1,0.6-1.4c12.1-6.5,24.3-13.1,36.4-19.7c4.3-2.3,8.6-4.7,13-7C238.4,102.3,238.6,102.1,238.8,102.2z"/>
		<path class="st0" d="M157.5,22.9c-1,1.8-2,3.5-2.9,5.3c-7.9,14.2-15.8,28.4-23.7,42.5c-0.3,0.6-0.6,0.8-1.4,0.6
			c-5-1.4-9.9-2.8-14.9-4.2c-0.4-0.1-0.9-0.3-1.4-0.4C128,52,142.7,37.4,157.5,22.9z"/>
		<path class="st0" d="M133.3,131.9c2.4-0.1,4.7-0.2,7.1-0.3c10.4-0.4,20.8-0.7,31.2-1.1c4.7-0.2,9.3-0.3,14-0.5
			c0.4,0,0.8-0.1,1,0.5c1.6,5.7,3.3,11.4,5,17.3c-19.5-5.3-38.9-10.6-58.3-15.8C133.3,132,133.3,132,133.3,131.9z"/>
		<path class="st0" d="M127.9,126.3c-5.1-19.3-10.2-38.5-15.3-58c2.2,0.6,4.4,1.2,6.5,1.8c3.1,0.9,6.2,1.8,9.3,2.6
			c1.1,0.3,1.4,0.8,1.4,1.9c-0.3,8.4-0.6,16.8-0.8,25.2c-0.3,8.6-0.6,17.3-0.8,25.9c0,0.2,0,0.4,0,0.6
			C128,126.3,128,126.3,127.9,126.3z"/>
		<path class="st0" d="M237.4,95.9c-2.6-4.4-5.1-8.9-7.7-13.3c-6.2-10.6-12.3-21.2-18.5-31.8c-0.4-0.7-0.5-1.2,0.2-1.8
			c3.7-3.3,7.3-6.8,11.1-10.3c5,19.1,10,38.1,15,57.1C237.5,95.9,237.5,95.9,237.4,95.9z"/>
		<path class="st0" d="M163.5,22.4c19.2,5.2,38.1,10.4,57.3,15.6c-2,1.5-3.4,3.2-5.1,4.7c-2,1.8-4,3.6-6,5.5
			c-0.5,0.5-0.8,0.5-1.4,0.2c-10.3-6-20.6-12-31-17.9c-4.4-2.6-8.9-5.1-13.3-7.7C163.9,22.8,163.8,22.7,163.5,22.4z"/>
	</g>
	<path class="st1" d="M244.9,49.8c0.3-7.6,3.1-12.9,8.3-16.1c-5.2-3.2-8-8.5-8.3-16.1c-0.3,7.6-3.1,12.9-8.3,16.1
		C241.8,36.9,244.7,42.2,244.9,49.8z"/>
	<path class="st2" d="M141.3,22.7c0.1-1.9,0.8-3.2,2.1-4c-1.3-0.8-2-2.1-2.1-4c-0.1,1.9-0.8,3.2-2.1,4
		C140.6,19.5,141.2,20.8,141.3,22.7z"/>
	<path class="st2" d="M91.6,58.9c0.1-1.9,0.8-3.2,2.1-4c-1.3-0.8-2-2.1-2.1-4c-0.1,1.9-0.8,3.2-2.1,4C90.8,55.6,91.5,56.9,91.6,58.9
		z"/>
	<path class="st2" d="M100.5,95.5c0.1-1.9,0.8-3.2,2.1-4c-1.3-0.8-2-2.1-2.1-4c-0.1,1.9-0.8,3.2-2.1,4
		C99.7,92.3,100.4,93.6,100.5,95.5z"/>
	<path class="st2" d="M245.3,141.2c0.1-1.9,0.8-3.2,2.1-4c-1.3-0.8-2-2.1-2.1-4c-0.1,1.9-0.8,3.2-2.1,4
		C244.6,138,245.3,139.3,245.3,141.2z"/>
	<path class="st2" d="M255.3,69.7c0.1-1.9,0.8-3.2,2.1-4c-1.3-0.8-2-2.1-2.1-4c-0.1,1.9-0.8,3.2-2.1,4
		C254.5,66.5,255.2,67.8,255.3,69.7z"/>
	<path class="st2" d="M218.4,22.7c0.1-1.9,0.8-3.2,2.1-4c-1.3-0.8-2-2.1-2.1-4c-0.1,1.9-0.8,3.2-2.1,4
		C217.6,19.5,218.3,20.8,218.4,22.7z"/>
	<path class="st2" d="M120.9,28.9c0-1.2,0.5-2,1.3-2.5c-0.8-0.5-1.2-1.3-1.3-2.5c0,1.2-0.5,2-1.3,2.5
		C120.4,26.9,120.8,27.8,120.9,28.9z"/>
	<path class="st2" d="M113.1,51.1c0-1.2,0.5-2,1.3-2.5c-0.8-0.5-1.2-1.3-1.3-2.5c0,1.2-0.5,2-1.3,2.5
		C112.6,49.1,113.1,49.9,113.1,51.1z"/>
	<path class="st2" d="M83.9,113.5c0-1.2,0.5-2,1.3-2.5c-0.8-0.5-1.2-1.3-1.3-2.5c0,1.2-0.5,2-1.3,2.5
		C83.4,111.4,83.8,112.3,83.9,113.5z"/>
	<path class="st2" d="M99.2,157c0-1.2,0.5-2,1.3-2.5c-0.8-0.5-1.2-1.3-1.3-2.5c0,1.2-0.5,2-1.3,2.5C98.7,155,99.1,155.8,99.2,157z"
		/>
	<path class="st2" d="M254.5,117.5c0-1.2,0.5-2,1.3-2.5c-0.8-0.5-1.2-1.3-1.3-2.5c0,1.2-0.5,2-1.3,2.5
		C254,115.5,254.5,116.4,254.5,117.5z"/>
	<path class="st2" d="M244.9,92.9c0-1.2,0.5-2,1.3-2.5c-0.8-0.5-1.3-1.3-1.3-2.5c0,1.2-0.5,2-1.3,2.5
		C244.5,90.9,244.9,91.7,244.9,92.9z"/>
	<path class="st2" d="M267.3,92.9c0-1.2,0.5-2,1.3-2.5c-0.8-0.5-1.2-1.3-1.3-2.5c0,1.2-0.5,2-1.3,2.5
		C266.8,90.9,267.3,91.7,267.3,92.9z"/>
	<path class="st2" d="M234.4,59.9c0-1.2,0.5-2,1.3-2.5c-0.8-0.5-1.2-1.3-1.3-2.5c0,1.2-0.5,2-1.3,2.5
		C233.9,57.8,234.3,58.7,234.4,59.9z"/>
	<path class="st2" d="M179.2,18c0-1.2,0.5-2,1.3-2.5c-0.8-0.5-1.3-1.3-1.3-2.5c0,1.2-0.5,2-1.3,2.5C178.7,16,179.1,16.8,179.2,18z"
		/>
	<g>
		<g>
			<path class="st3" d="M24.5,222.8c0-1,0.1-2,0.2-3.1c0.6-4.9,2.2-9.3,4.7-13.1c3.1-4.7,6.7-7,11-7c1.5,0,3,0.3,4.4,0.8l3.5-24.9
				c0.5-3.4,1.6-5.1,3.6-5.1c0.3,0,0.6,0.1,0.9,0.2c1.3,0.8,2,3.8,2,9c0,0.6-0.4,3.9-1.1,9.9c-3.3,21-4.9,32.5-4.9,34.6
				c0,1.3,0.3,2.6,0.8,3.7c0.8,1.7,1.9,2.6,3.2,2.6c0.3,0,0.5,0,0.8-0.1c0.9-0.2,2.1-0.8,3.8-2c1.6-1.2,2.9-1.7,3.8-1.7
				c0.4,0,0.8,0.1,1.1,0.4c0.7,0.6,1,1.3,1,2.2c-0.1,1.5-1.2,3.1-3.4,4.7c-2.6,1.8-5.3,2.8-8.3,2.8c-3.6,0-6.3-1.8-8.1-5.4
				c-0.4,0.5-0.9,1-1.5,1.5c-2.8,2.5-5.6,3.8-8.4,3.8c-1.8,0-3.4-0.5-4.7-1.4C26,233.2,24.5,229,24.5,222.8z M39.9,225.7
				c0.4-0.5,0.8-2,1.4-4.3c1.2-5,2-10.2,2.6-15.7c-0.7-0.3-1.4-0.5-2.1-0.6c-0.5,0-1.1,0.1-1.6,0.2c-2.7,0.7-4.9,3.2-6.8,7.4
				c-1.6,3.8-2.5,7.6-2.5,11.4c0,0.3,0,0.6,0,1c0.1,3.2,1,4.8,2.7,4.8c0.8,0,1.9-0.5,3.2-1.4C38.2,227.6,39.2,226.6,39.9,225.7z"/>
			<path class="st3" d="M77.2,213.2c0.2-1.8,0.5-5.1,0.9-9.9c0-0.2,0.1-0.4,0.1-0.6c0.3-1.8,1.5-2.8,3.3-2.8c0.1,0,0.2,0,0.3,0.1
				c1.6,0.2,2.3,1.9,2.3,5c0,0.8-0.1,2-0.2,3.6c-0.1-1.1,0-1.5,0.1-1.2c-0.6,7.8-0.9,12.8-0.9,14.9c0,0.8,0,1.5,0.1,2.3
				c0.5,3.7,1.7,5.5,3.8,5.5c0.3,0,0.6,0,0.9-0.1c0.8-0.2,2.1-0.8,3.7-1.9c1.6-1.2,2.9-1.7,3.8-1.7c0.4,0,0.7,0.1,1.1,0.3
				c0.9,0.5,1.3,1.4,1.3,2.5c0,0.1,0,0.2,0,0.3c-0.2,1.4-1.4,2.8-3.6,4.2c-2.7,1.8-5.3,2.7-8,2.7c-3.6,0-6.1-1.6-7.6-4.8
				c-2.5,3.1-6,4.6-10.4,4.6c-1,0-2-0.1-2.9-0.4c-5-1.5-7.6-7.1-7.6-16.6c0-4.6,0.5-9.2,1.5-13.9c0.1-0.2,0.1-0.5,0.2-0.7
				c0.9-3.2,2.2-4.8,3.8-4.8c2,0,3.1,1.2,3.2,3.4c0,0.5-0.1,1.5-0.4,3.1c-1,6.5-1.5,11.2-1.5,14.1c0,6,1.5,9.1,4.6,9.1
				C73,229.3,75.7,223.9,77.2,213.2z"/>
			<path class="st3" d="M91.6,222.8c0-1,0.1-2,0.2-3.1c0.6-4.9,2.2-9.3,4.7-13.1c3.1-4.7,6.7-7,11-7c1.5,0,3,0.3,4.4,0.8l3.5-24.9
				c0.5-3.4,1.6-5.1,3.6-5.1c0.3,0,0.6,0.1,0.9,0.2c1.3,0.8,2,3.8,2,9c0,0.6-0.4,3.9-1.1,9.9c-3.3,21-4.9,32.5-4.9,34.6
				c0,1.3,0.3,2.6,0.8,3.7c0.8,1.7,1.9,2.6,3.2,2.6c0.3,0,0.5,0,0.8-0.1c0.9-0.2,2.1-0.8,3.8-2c1.6-1.2,2.9-1.7,3.8-1.7
				c0.4,0,0.8,0.1,1.1,0.4c0.7,0.6,1,1.3,1,2.2c-0.1,1.5-1.2,3.1-3.4,4.7c-2.6,1.8-5.3,2.8-8.3,2.8c-3.6,0-6.3-1.8-8.1-5.4
				c-0.4,0.5-0.9,1-1.5,1.5c-2.8,2.5-5.6,3.8-8.4,3.8c-1.8,0-3.4-0.5-4.7-1.4C93.1,233.2,91.6,229,91.6,222.8z M107,225.7
				c0.4-0.5,0.8-2,1.4-4.3c1.2-5,2-10.2,2.6-15.7c-0.7-0.3-1.4-0.5-2.1-0.6c-0.5,0-1.1,0.1-1.6,0.2c-2.7,0.7-4.9,3.2-6.8,7.4
				c-1.6,3.8-2.5,7.6-2.5,11.4c0,0.3,0,0.6,0,1c0.1,3.2,1,4.8,2.7,4.8c0.8,0,1.9-0.5,3.2-1.4C105.3,227.6,106.3,226.6,107,225.7z"/>
			<path class="st3" d="M125.9,223.3c0-1,0.1-2,0.2-3.1c0.6-4.9,2.2-9.3,4.7-13.1c3.1-4.7,6.7-7,11-7c1.2,0,2.3,0.1,3.3,0.4
				c3.8,1.1,5.7,3.8,5.7,8.1c0,0.3,0,0.7,0,1c-0.3,3.9-2,7.1-5.2,9.8c-3.1,2.6-6.7,3.9-10.8,3.9c-0.8,0-1.5-0.1-2.3-0.2
				c-0.1,0.4-0.1,1-0.1,1.8c0,1.7,0.3,2.9,0.9,3.8c0.8,1.2,2.4,1.9,4.8,2.1c1.1,0,2.1-0.1,3.1-0.3c1.8-0.4,3.9-1.4,6.4-3
				c1.6-1.1,2.7-1.6,3.4-1.6c0.4,0,0.8,0.1,1.2,0.3c0.9,0.5,1.4,1.3,1.4,2.4c0,0.3-0.1,0.7-0.2,1.1c-0.8,1.9-3.1,3.6-7,5.3
				c-3.6,1.5-6.8,2.3-9.5,2.3c-1,0-2-0.1-2.9-0.3C128.6,235.8,125.9,231.3,125.9,223.3z M139.8,206.7c-2.6,1.8-4.7,5.1-6.2,10.1
				c0.7,0.2,1.4,0.3,2.1,0.3c2.4,0,4.5-0.7,6.2-2.2c2-1.6,3-3.6,3-5.8c0-2.2-0.7-3.4-2.1-3.4C141.8,205.7,140.8,206.1,139.8,206.7z"
				/>
		</g>
		<g>
			<path class="st3" d="M156.3,236.8l13.8-19l-0.1,1l-12.3-17.5h2.9l10.8,15.4h0.6l11-15.4h2.9l-12.8,17.9l0-1l13.5,18.7h-2.9
				l-11.9-16.6h-0.6l-11.9,16.6L156.3,236.8z"/>
			<path class="st3" d="M191.1,236.9v-35.7h2.6v35.7H191.1z M192.8,223.3v-2.4h8.6c2.1,0,3.9-0.4,5.2-1.2c1.3-0.8,2.3-1.8,2.9-3.1
				c0.6-1.3,0.9-2.8,0.9-4.4c0-1.6-0.3-3-0.9-4.4c-0.6-1.3-1.6-2.4-2.9-3.1c-1.3-0.8-3-1.2-5.2-1.2h-8.6v-2.4h8.2
				c2.8,0,5,0.5,6.8,1.4c1.8,1,3.1,2.3,3.9,3.9c0.8,1.6,1.3,3.4,1.3,5.5v0.6c0,2-0.4,3.8-1.3,5.4c-0.8,1.6-2.1,2.9-3.9,3.9
				c-1.8,1-4,1.4-6.8,1.4H192.8z"/>
			<path class="st3" d="M218.4,236.9v-35.7h2.6v35.7H218.4z M219.8,222.8v-2.4h9.6c2,0,3.7-0.4,4.9-1.1c1.3-0.7,2.2-1.8,2.8-3
				c0.6-1.3,0.9-2.7,0.9-4.3c0-1.6-0.3-3-0.9-4.3c-0.6-1.3-1.5-2.3-2.8-3c-1.3-0.7-2.9-1.1-4.9-1.1h-9.6v-2.4h9.2
				c2.6,0,4.8,0.4,6.5,1.3c1.7,0.9,3,2.1,3.9,3.7c0.8,1.6,1.3,3.4,1.3,5.5v0.6c0,2.1-0.4,3.9-1.3,5.5c-0.8,1.6-2.1,2.8-3.9,3.7
				c-1.7,0.9-3.9,1.3-6.5,1.3H219.8z M240.6,236.9l-12.6-15.6h3.2l12.6,15.6H240.6z"/>
			<path class="st3" d="M248.4,236.9v-35.6h2.6v35.6H248.4z M250.2,203.7v-2.4h17.7v2.4H250.2z M250.2,220v-2.4h16.6v2.4H250.2z
				 M250.2,236.9v-2.4h18.3v2.4H250.2z"/>
			<path class="st3" d="M285.6,237.7c-3,0-5.5-0.5-7.6-1.4c-2-1-3.5-2.3-4.5-3.9c-1-1.7-1.5-3.6-1.5-5.7h2.6c0,1.6,0.4,3.1,1.1,4.4
				c0.8,1.3,2,2.3,3.6,3.1c1.6,0.8,3.7,1.1,6.2,1.1c2.4,0,4.4-0.3,5.9-1c1.6-0.7,2.8-1.6,3.6-2.8c0.8-1.2,1.2-2.6,1.2-4.1
				c0-1.9-0.7-3.5-2.1-4.9c-1.4-1.3-3.6-2.2-6.5-2.5l-4.2-0.3c-3-0.3-5.3-1.2-7-2.8c-1.7-1.6-2.6-3.8-2.6-6.4c0-1.9,0.4-3.6,1.3-5.1
				c0.9-1.5,2.2-2.7,3.9-3.6c1.8-0.9,3.9-1.3,6.5-1.3c2.6,0,4.8,0.5,6.6,1.4c1.8,1,3.1,2.2,4.1,3.9c0.9,1.6,1.4,3.4,1.4,5.4H295
				c0-1.5-0.3-2.8-1-4.1c-0.7-1.3-1.7-2.3-3-3c-1.4-0.8-3.2-1.2-5.4-1.2c-2.1,0-3.9,0.3-5.2,1c-1.3,0.7-2.3,1.6-2.9,2.8
				c-0.6,1.2-1,2.4-1,3.8c0,1.9,0.6,3.5,1.9,4.7c1.3,1.2,3,1.9,5.4,2.1l4.2,0.3c2.4,0.2,4.4,0.7,6,1.6c1.6,0.9,2.9,2,3.7,3.4
				c0.8,1.4,1.3,3,1.3,4.7c0,2-0.5,3.8-1.6,5.3c-1,1.6-2.6,2.8-4.5,3.7C290.9,237.3,288.5,237.7,285.6,237.7z"/>
			<path class="st3" d="M317,237.7c-3,0-5.5-0.5-7.6-1.4c-2-1-3.5-2.3-4.5-3.9c-1-1.7-1.5-3.6-1.5-5.7h2.6c0,1.6,0.4,3.1,1.1,4.4
				c0.8,1.3,2,2.3,3.6,3.1c1.6,0.8,3.7,1.1,6.2,1.1c2.4,0,4.4-0.3,5.9-1c1.6-0.7,2.8-1.6,3.6-2.8c0.8-1.2,1.2-2.6,1.2-4.1
				c0-1.9-0.7-3.5-2.1-4.9c-1.4-1.3-3.6-2.2-6.5-2.5l-4.2-0.3c-3-0.3-5.3-1.2-7-2.8c-1.7-1.6-2.6-3.8-2.6-6.4c0-1.9,0.4-3.6,1.3-5.1
				c0.9-1.5,2.2-2.7,3.9-3.6c1.8-0.9,3.9-1.3,6.5-1.3c2.6,0,4.8,0.5,6.6,1.4c1.8,1,3.1,2.2,4.1,3.9c0.9,1.6,1.4,3.4,1.4,5.4h-2.6
				c0-1.5-0.3-2.8-1-4.1c-0.7-1.3-1.7-2.3-3-3c-1.4-0.8-3.2-1.2-5.4-1.2c-2.1,0-3.9,0.3-5.2,1c-1.3,0.7-2.3,1.6-2.9,2.8
				c-0.6,1.2-1,2.4-1,3.8c0,1.9,0.6,3.5,1.9,4.7c1.3,1.2,3,1.9,5.4,2.1l4.2,0.3c2.4,0.2,4.4,0.7,6,1.6c1.6,0.9,2.9,2,3.7,3.4
				c0.8,1.4,1.3,3,1.3,4.7c0,2-0.5,3.8-1.6,5.3c-1,1.6-2.6,2.8-4.5,3.7C322.3,237.3,319.9,237.7,317,237.7z"/>
		</g>
	</g>
	<g>
		<path class="st4" d="M138.9,166.6c-4.5-0.1-9.1-1.4-13.5-3.9c-4.6-2.6-8.8-6.3-12-10.9c-0.7-0.9-0.9-2-0.7-3.1
			c0.2-1.1,0.8-2.1,1.7-2.7c0.7-0.5,1.5-0.8,2.4-0.8c0.3,0,0.6,0,0.8,0.1c-0.1-0.3-0.1-0.5-0.1-0.8v-28.7c0-0.3,0-0.5,0.1-0.8
			c-0.3,0.1-0.5,0.1-0.8,0.1c-0.9,0-1.7-0.3-2.4-0.8c-0.9-0.6-1.5-1.6-1.7-2.7c-0.2-1.1,0.1-2.2,0.7-3.1c3.2-4.5,7.4-8.3,12-10.9
			c4.4-2.5,9-3.8,13.5-3.9l0.5,0c2.7,0,5.2,0.4,7.6,1.3c0.5-4.5,1.3-9.8,3-14.6c2-5.6,4.8-9.4,8.3-11.3c0.4-0.2,0.9-0.4,1.4-0.6
			c-3.2-4.8-4.9-10.6-4.9-16.4c0-16.4,13.4-29.8,29.8-29.8c8.8,0,17.1,3.9,22.8,10.6l0.6,0.7c4.2,5.3,6.4,11.7,6.4,18.5
			c0,6.7-2.3,13.2-6.4,18.5l-0.2,0.2c-0.1,0.2-0.3,0.4-0.4,0.5c-4.9,5.9-11.9,9.5-19.5,10.4c0.8,1.6,1.5,3.5,2,5.4
			c0.4,1.6-0.2,3.3-1.4,4.2c0.4,1.1,0.8,2.2,1.2,3.2c0.7,1.5,1.3,2.8,2,3.9c1.6,0.4,3,1,4.2,2c1.1,0.9,1.9,1.9,2.5,3.1
			c14.8,3.9,27.2,12,37.1,24c0.6,0.7,1,1.7,1,2.7c0,1-0.4,2-1,2.7c-12,14.7-28.5,23.7-47.6,26c-3.2,0.4-6.4,0.6-9.7,0.6
			c-6.7,0-13.5-0.8-20.3-2.3c-1.6,2.1-3.4,4-5.4,5.4c-3.7,2.7-8.2,4.1-12.9,4.1L138.9,166.6z M126.2,147.6c0.6,0.1,1.3,0.1,1.9,0.1
			c0.6,0,1.2,0,1.8-0.1c0.6-0.1,1.1-0.1,1.6-0.2c-0.5-0.3-1-0.5-1.5-0.8L126.2,147.6z M130,113.8c0.5-0.3,1-0.5,1.5-0.8
			c-0.5-0.1-1.1-0.2-1.6-0.2c-0.6-0.1-1.2-0.1-1.9-0.1c-0.6,0-1.2,0-1.8,0.1L130,113.8z"/>
		<path class="st2" d="M156.9,155.2c-1.5,2.3-3.4,4.3-5.6,6c-3.6,2.6-7.9,3.8-12.3,3.7c-4.5-0.1-8.8-1.5-12.7-3.7
			c-4.5-2.5-8.5-6.2-11.5-10.4c-0.8-1.1-0.5-2.6,0.6-3.4c0.7-0.5,1.7-0.6,2.5-0.2c3.7,1.7,8.1,2.5,12.2,2.2c2-0.2,4-0.7,5.8-1.6
			c-1.9-0.9-3.8-1.9-5.6-2.9l-7.8,2.1c-0.2,0.1-0.5,0.1-0.7,0.1c-1.4,0-2.5-1.1-2.5-2.5v-28.7c0-0.2,0-0.4,0.1-0.6
			c0.3-1.3,1.7-2.1,3-1.8l7.9,2.1c1.8-1,3.7-2,5.6-2.9c-1.8-0.9-3.8-1.4-5.8-1.6c-4.1-0.4-8.5,0.5-12.2,2.1
			c-0.8,0.4-1.8,0.3-2.5-0.2c-1.1-0.8-1.4-2.3-0.6-3.4c3-4.2,6.9-7.9,11.5-10.4c3.9-2.2,8.2-3.6,12.7-3.7c3.3-0.1,6.6,0.6,9.5,2.1
			c0.5-5.6,1.3-11.3,3.1-16.5c1.4-4,3.6-8.3,7.5-10.4c1.1-0.6,2.2-0.9,3.4-1.1c-3.9-4.9-6.1-11-6.1-17.4c0-15.5,12.6-28.1,28.1-28.1
			c8.3,0,16.1,3.6,21.5,10c0.2,0.2,0.4,0.5,0.6,0.7c3.9,5,6.1,11.1,6.1,17.4c0,6.3-2.1,12.4-6.1,17.4c-0.2,0.2-0.4,0.5-0.6,0.7
			c-4.8,5.7-11.6,9.2-19,9.9c-0.7,0.1-1.5,0.1-2.2,0.1c1.5,2.2,2.6,4.8,3.2,7.4c0.3,1.2-0.3,2.4-1.5,2.9l-0.3,0.2
			c0.5,1.6,1,3.1,1.7,4.6c0.7,1.6,1.5,3.2,2.5,4.7c1.5,0.3,3,0.8,4.2,1.8c1.1,0.8,1.8,1.9,2.3,3.2c14.8,3.7,27.3,11.8,37,23.6
			c0.4,0.5,0.6,1,0.6,1.7c0,0.6-0.2,1.2-0.6,1.6C222,146.4,206,155,187.4,157.2C177.2,158.4,166.8,157.6,156.9,155.2z"/>
		<path class="st5" d="M116.8,110.9c7.6-3.5,18.3-3.7,23.8,2.2c4.9-2.1,10-3.9,15.2-5.2C146.7,92,127.2,96.5,116.8,110.9z"/>
		<path class="st6" d="M154.3,108.3c-8.9-8.2-25.6-6-35.7,1.9c-0.6,0.2-1.2,0.5-1.8,0.8c10.4-14.5,30-19,38.9-3
			C155.3,108.1,154.8,108.2,154.3,108.3z"/>
		<path class="st5" d="M116.8,149.4c7.6,3.5,18.3,3.7,23.8-2.2c4.9,2.1,10,3.9,15.2,5.2C146.7,168.4,127.2,163.9,116.8,149.4z"/>
		<path class="st6" d="M154.3,152c-8.9,8.2-25.6,5.9-35.7-1.9c-0.6-0.2-1.2-0.5-1.8-0.8c10.4,14.5,30,19,38.9,3
			C155.3,152.3,154.8,152.2,154.3,152z"/>
		<path class="st4" d="M130.6,142.1c32.7,18.7,75.7,19.8,101.5-12c-25.8-31.7-68.8-30.7-101.5-12V142.1z"/>
		<path class="st7" d="M184.1,121.5c0.7-5-3.8-10.2-9.4-15.6c0-0.3,0-0.5,0.1-0.8c-5.7,0.2-11.4,1-17.1,2.3c0.6,0.4,1.3,0.8,2,1.2
			c4.4,2.5,8.3,5.5,10.7,8.4c3.7,4.5,0.1,9.5-2.6,14.4c-4,5.9,21.6,14.5,10.4,0.8c1.8-1.4,3.2-3.3,4.4-5.4c-0.2-0.1-0.3-0.3-0.5-0.4
			C183.1,124.6,184,122.8,184.1,121.5z"/>
		<path class="st7" d="M153.9,141.9c-16.7-6.8-17.3-25.2-1.3-32c2.7-1.2,5.5-2.2,8.4-3.1c-10.6,2.1-20.9,6-30.4,11.5v23.9
			c32.7,18.7,75.7,19.8,101.5-12c-1.2-1.5-2.4-2.8-3.6-4.1C209.4,149.9,179.6,152.3,153.9,141.9z"/>
		<path class="st8" d="M232,129.4c0.5,0,0.8,0.4,0.8,0.8c0,0.5-0.4,0.8-0.8,0.8H130.6c-0.5,0-0.8-0.4-0.8-0.8c0-0.5,0.4-0.8,0.8-0.8
			H232z"/>
		<polygon class="st7" points="130.6,142.1 130.6,118.2 121.7,115.8 121.7,144.5 		"/>
		<path class="st8" d="M130.6,122.4c0.5,0,0.8,0.4,0.8,0.8c0,0.5-0.4,0.8-0.8,0.8h-8.9c-0.5,0-0.8-0.4-0.8-0.8
			c0-0.5,0.4-0.8,0.8-0.8H130.6z"/>
		<path class="st8" d="M130.6,136.3c0.5,0,0.8,0.4,0.8,0.8s-0.4,0.8-0.8,0.8h-8.9c-0.5,0-0.8-0.3-0.8-0.8s0.4-0.8,0.8-0.8H130.6z"/>
		<path class="st8" d="M130.6,129.4c0.5,0,0.8,0.4,0.8,0.8c0,0.5-0.4,0.8-0.8,0.8h-8.9c-0.5,0-0.8-0.4-0.8-0.8
			c0-0.5,0.4-0.8,0.8-0.8H130.6z"/>
		<path class="st8" d="M187.2,155.6c-19.2,2.3-39.5-2.7-57-12.7c-0.3-0.1-0.5-0.4-0.5-0.7v-23.9c0-0.3,0.2-0.6,0.4-0.7
			c17.5-10,37.9-15,57-12.7c17.1,2,33.2,9.8,45.5,24.9c0.3,0.3,0.3,0.7,0,1C220.4,145.8,204.3,153.6,187.2,155.6z M131.4,141.7
			c17.1,9.7,36.9,14.5,55.6,12.3c16.5-1.9,32-9.4,44-23.8c-11.9-14.4-27.5-21.8-44-23.8c-18.7-2.2-38.5,2.6-55.6,12.3V141.7z"/>
		<path class="st8" d="M131.4,118.2v23.9c0,0.3-0.2,0.7-0.6,0.8l-8.8,2.4c-0.1,0-0.2,0-0.3,0c-0.5,0-0.8-0.4-0.8-0.8v-28.7
			c0-0.1,0-0.1,0-0.2c0.1-0.4,0.6-0.7,1-0.6l8.8,2.4C131.1,117.5,131.4,117.8,131.4,118.2z M129.7,141.5v-22.7l-7.2-1.9v26.5
			L129.7,141.5z"/>
		<path class="st8" d="M130.2,109.4c-4.4-0.4-9.1,0.5-13.1,2.3c-0.3,0.1-0.6,0.1-0.8-0.1c-0.4-0.3-0.5-0.8-0.2-1.2
			c3-4.2,6.8-7.6,10.9-9.9c3.8-2.2,7.9-3.4,11.9-3.5c4-0.1,7.9,1,11.3,3.4c2.3,1.7,4.4,4,6.1,7c0,0.1,0.1,0.2,0.1,0.2
			c0.1,0.5-0.2,0.9-0.6,1c-2.6,0.7-5.1,1.4-7.6,2.3c-2.5,0.9-5,1.8-7.4,2.9c-0.3,0.2-0.7,0.1-1-0.2
			C137.5,111.1,134,109.8,130.2,109.4z M119.3,109.1c3.5-1.2,7.4-1.7,11-1.3c4,0.4,7.8,1.8,10.4,4.5c2.3-1,4.7-1.9,7.1-2.7
			c2.2-0.8,4.4-1.4,6.6-2c-1.5-2.4-3.2-4.2-5.1-5.6c-3.1-2.2-6.6-3.2-10.3-3.1c-3.7,0.1-7.5,1.2-11.1,3.3
			C124.8,103.7,121.8,106.1,119.3,109.1z"/>
		<path class="st8" d="M130.3,152.6c-3.6,0.3-7.5-0.2-11-1.3c2.5,3,5.5,5.4,8.6,7.1c3.6,2,7.4,3.2,11.1,3.3
			c3.7,0.1,7.2-0.9,10.3-3.1c1.9-1.4,3.7-3.2,5.1-5.6c-2.2-0.6-4.5-1.3-6.6-2c-2.4-0.8-4.8-1.7-7.1-2.7
			C138.1,150.8,134.3,152.2,130.3,152.6z M117.1,148.7c3.9,1.8,8.7,2.7,13.1,2.3c3.8-0.3,7.3-1.7,9.8-4.3c0.3-0.3,0.7-0.3,1-0.2
			c2.4,1.1,4.9,2,7.4,2.9c2.5,0.9,5,1.6,7.6,2.3c0.4,0.1,0.7,0.6,0.6,1c0,0.1-0.1,0.2-0.1,0.2c-1.7,3-3.8,5.4-6.1,7
			c-3.4,2.4-7.3,3.5-11.3,3.4c-4-0.1-8.1-1.3-11.9-3.5c-4.1-2.3-7.9-5.7-10.9-9.9c-0.3-0.4-0.2-0.9,0.2-1.2
			C116.6,148.6,116.9,148.5,117.1,148.7z"/>
		<path class="st4" d="M184.5,78.5c14.6,0,26.5-11.9,26.5-26.4c0-14.6-11.9-26.5-26.5-26.5c-14.6,0-26.4,11.9-26.4,26.5
			C158.1,66.6,170,78.5,184.5,78.5z"/>
		<path class="st2" d="M184.5,56.5l20.8,12c3.6-4.5,5.7-10.2,5.7-16.4c0-6.2-2.1-11.9-5.7-16.4l-20.8,12c2.5,0,4.4,2,4.4,4.4
			C189,54.5,187,56.5,184.5,56.5z"/>
		<path class="st4" d="M167.8,72.6c-4.6,6.6-7.7,15.1-9.1,25.4c-0.9,6.5-1,6.8,4.3,9.9c4.4,2.5,8.3,5.5,10.7,8.4
			c1.6,1.9,2,3.7,1.9,5.4c3.8,0.5,7.1,1.7,9.8,3.9c1-1.8,1.8-3.6,2-4.9c0.7-5-3.8-10.2-9.4-15.6c0.5-8.9,1.9-17.7,4.5-26.6
			C177,78,171.9,75.9,167.8,72.6z"/>
		<path class="st4" d="M167.8,72.6c-15.1-5.3-16.6,20.9-17.3,29.2c1.9,1.5,3.7,3.6,5.1,6.2c1.8-0.5,3.6-0.9,5.5-1.2
			c-3.4-2.1-3.2-3.1-2.5-8.7C160.1,87.6,163.2,79.2,167.8,72.6z"/>
		<path class="st4" d="M186,126c-3-2.6-6.8-4-11.1-4.4c-0.7,3.3-2.1,6.2-3.6,9c-4,5.9,21.6,14.5,10.4,0.8
			C183.3,129.9,184.8,128.1,186,126z"/>
		<path class="st7" d="M193.6,42.4c17.2-6,16.8,15.4,9.1,24.5l2.6,1.5c3.6-4.5,5.7-10.2,5.7-16.4c0-6.2-2.1-11.9-5.7-16.4
			L193.6,42.4z"/>
		<path class="st7" d="M186.9,78.4c-11.3-1.2-20.1-12.5-20.1-26.3c0-12.8,7.6-23.5,17.7-25.9v-0.5c-14.6,0-26.4,11.9-26.4,26.5
			c0,8.3,3.8,15.7,9.7,20.5c2.9,2.4,6.3,4.1,10,5.1c0.1,0,0.2,0.1,0.4,0.1c1.4,0.3,2.9,0.6,4.4,0.7c0.6,0,1.3,0.1,1.9,0.1
			C185.4,78.5,186.1,78.5,186.9,78.4z"/>
		<path class="st7" d="M185.3,47.7c-0.3,0-0.5-0.1-0.8-0.1c-2.4,0-4.4,2-4.4,4.4c0,2.4,2,4.4,4.4,4.4c0.3,0,0.5,0,0.8-0.1
			C181.9,55.6,181.9,48.6,185.3,47.7z"/>
		<path class="st4" d="M167.8,72.6c-15.1-5.3-16.6,20.9-17.3,29.2c1.9,1.5,3.7,3.6,5.1,6.2c1.8-0.5,3.6-0.9,5.5-1.2
			c-3.4-2.1-3.2-3.1-2.5-8.7C160.1,87.6,163.2,79.2,167.8,72.6z"/>
		<path class="st7" d="M158.3,107.3c-5.5-13.6-2.3-35.2,6.5-35.4c-12.3-1-13.7,22.1-14.2,29.8c1.9,1.5,3.7,3.6,5.1,6.2
			C156.6,107.7,157.4,107.5,158.3,107.3z"/>
		<path class="st7" d="M165.2,96.1c1-8.3,3-15.4,6-21.2c-1.2-0.7-2.3-1.5-3.3-2.3c-4.6,6.6-7.7,15.1-9.1,25.4
			c-0.9,6.5-1,6.8,4.3,9.9c4.4,2.5,8.3,5.5,10.7,8.4c1.6,1.9,2,3.7,1.9,5.4c3.8,0.5,7.1,1.7,9.8,3.9c0.7-1.3,1.4-2.6,1.7-3.8
			c-1.9-1.3-4.2-2.2-6.1-2.7c-2-0.5-1.1-1.6-2-3.8c-1.5-3.6-7.4-8-10.2-9.7C164.3,102.7,164.4,102.3,165.2,96.1z"/>
		<path class="st7" d="M186,126c-3-2.6-6.8-4-11.1-4.4c-0.7,3.3-2.1,6.2-3.6,9c-1.5,2.3,1.3,4.9,4.7,6.6c-1.8-1.5-2.8-3.7-1.5-6.3
			c2.3-4.8,3.3-8.7,10.4-3C185.2,127.3,185.6,126.6,186,126z"/>
		<path class="st8" d="M184.7,128c0.2,0.1,0.2,0.4,0,0.6c-0.1,0.2-0.4,0.2-0.6,0.1c-1.4-1.2-3-2-4.6-2.7c-1.7-0.7-3.5-1.1-5.5-1.3
			c-0.2,0-0.4-0.2-0.4-0.5c0-0.2,0.2-0.4,0.5-0.3c2,0.2,3.9,0.7,5.7,1.3C181.7,125.9,183.3,126.8,184.7,128z"/>
		<path class="st8" d="M202.7,33.9c-4.6-4.6-11.1-7.5-18.1-7.5c-7.1,0-13.5,2.9-18.1,7.5c-4.6,4.6-7.5,11.1-7.5,18.1
			s2.9,13.5,7.5,18.1c4.6,4.6,11,7.5,18.1,7.5c7.1,0,13.5-2.9,18.1-7.5c4.6-4.6,7.5-11,7.5-18.1S207.3,38.6,202.7,33.9z M184.5,24.8
			c7.5,0,14.4,3.1,19.3,8c4.9,5,8,11.8,8,19.3s-3.1,14.4-8,19.3c-5,4.9-11.8,8-19.3,8s-14.4-3.1-19.3-8c-4.9-4.9-8-11.7-8-19.3
			s3.1-14.4,8-19.3C170.2,27.8,177,24.8,184.5,24.8z"/>
		<path class="st8" d="M187.1,49.5c-0.7-0.7-1.6-1-2.6-1c-1,0-1.9,0.4-2.5,1c-0.7,0.7-1,1.6-1,2.6c0,1,0.4,1.9,1,2.5
			c0.7,0.7,1.6,1.1,2.5,1.1c1,0,1.9-0.4,2.6-1.1c0.7-0.7,1-1.6,1-2.5C188.1,51.1,187.8,50.2,187.1,49.5z M184.5,46.8
			c1.5,0,2.8,0.6,3.7,1.5c1,1,1.5,2.3,1.5,3.7c0,1.4-0.6,2.8-1.5,3.7c-0.9,0.9-2.3,1.5-3.7,1.5c-1.4,0-2.8-0.6-3.7-1.5
			c-0.9-1-1.5-2.3-1.5-3.7c0-1.5,0.6-2.8,1.5-3.7C181.8,47.4,183.1,46.8,184.5,46.8z"/>
		<path class="st8" d="M204.9,69.2l-20.7-11.9c-0.3-0.2-0.5-0.4-0.5-0.8c0-0.5,0.4-0.8,0.8-0.8c1,0,1.9-0.4,2.6-1.1
			c0.7-0.7,1-1.6,1-2.5c0-1-0.4-1.9-1-2.6c-0.7-0.7-1.6-1-2.6-1c-0.3,0-0.5-0.2-0.7-0.4c-0.2-0.4-0.1-0.9,0.3-1.1l20.7-12
			c0.3-0.2,0.8-0.2,1.1,0.2c1.9,2.4,3.4,5,4.4,7.9c1,2.8,1.5,5.8,1.5,9c0,3.1-0.5,6.1-1.5,8.9c-1,2.9-2.5,5.6-4.3,7.9
			C205.7,69.3,205.3,69.4,204.9,69.2z M186.8,56.8l18.3,10.6c1.5-2.1,2.8-4.4,3.7-6.9c0.9-2.6,1.4-5.4,1.4-8.4c0-3-0.5-5.8-1.4-8.4
			c-0.9-2.5-2.1-4.8-3.7-6.9l-18.3,10.6c0.6,0.3,1.1,0.6,1.5,1c1,1,1.5,2.3,1.5,3.7c0,1.4-0.6,2.8-1.5,3.7
			C187.8,56.2,187.3,56.6,186.8,56.8z"/>
		<path class="st2" d="M184.5,53.8c1,0,1.8-0.8,1.8-1.8c0-1-0.8-1.8-1.8-1.8c-1,0-1.8,0.8-1.8,1.8C182.8,53,183.6,53.8,184.5,53.8z"
			/>
		<path class="st8" d="M161.3,83.6c1.5-4.3,3.5-8.1,5.9-11.5c0,0,0,0,0-0.1c0.3-0.4,0.8-0.4,1.2-0.1c2,1.7,4.3,3,6.7,4
			c2.4,1,4.9,1.5,7.6,1.7c0.1,0,0.1,0,0.2,0c0.4,0.1,0.7,0.6,0.6,1c-1.3,4.4-2.3,8.8-3,13.2c-0.7,4.3-1.2,8.6-1.5,12.9
			c2.8,2.6,5.2,5.2,6.9,7.8c1.8,2.8,2.8,5.5,2.5,8.2c-0.1,0.7-0.3,1.5-0.7,2.3c-0.4,0.9-0.8,1.8-1.4,2.8c0,0-0.1,0.1-0.1,0.2
			c-0.3,0.4-0.8,0.4-1.2,0.1c-1.3-1-2.7-1.8-4.3-2.4c-1.6-0.6-3.3-1-5.1-1.2c-0.4-0.1-0.8-0.4-0.7-0.9c0.1-0.8,0-1.6-0.3-2.3
			c-0.3-0.8-0.7-1.6-1.4-2.5c-1.1-1.4-2.6-2.8-4.4-4.2c-1.8-1.4-3.9-2.8-6.1-4c-5.8-3.3-5.7-3.7-4.8-10.2l0.1-0.4
			C158.6,92.6,159.8,87.9,161.3,83.6z M168,73.8c-2.1,3.1-3.8,6.6-5.2,10.4c-1.5,4.2-2.6,8.8-3.3,13.9l-0.1,0.4
			c-0.7,5.5-0.8,5.9,4,8.6c2.3,1.3,4.4,2.7,6.3,4.2c1.8,1.5,3.4,3,4.6,4.4c0.8,1,1.4,2,1.7,3c0.3,0.8,0.4,1.5,0.4,2.2
			c1.7,0.3,3.2,0.7,4.7,1.2c1.4,0.5,2.7,1.2,4,2.1c0.3-0.6,0.6-1.3,0.9-1.9c0.3-0.7,0.5-1.3,0.6-1.9c0.3-2.3-0.6-4.6-2.2-7.1
			c-1.7-2.5-4.2-5.1-6.9-7.8c-0.2-0.2-0.3-0.4-0.3-0.7c0.3-4.5,0.8-8.9,1.5-13.4c0.7-4.1,1.6-8.3,2.8-12.4c-2.5-0.3-4.8-0.9-7.1-1.8
			C172.1,76.5,170,75.3,168,73.8z"/>
		<path class="st8" d="M153.1,81.5c2.5-7.2,6.9-12.5,15-9.7c0.1,0,0.2,0,0.2,0.1c0.4,0.3,0.5,0.8,0.2,1.2c-2.3,3.3-4.2,7-5.7,11.1
			c-1.5,4.2-2.6,8.8-3.3,13.9l-0.1,0.4c-0.6,4.8-0.8,5.7,2.1,7.5c0.2,0.1,0.3,0.3,0.4,0.5c0.1,0.4-0.2,0.9-0.7,1
			c-0.9,0.2-1.8,0.4-2.7,0.6c-0.9,0.2-1.8,0.4-2.7,0.7c-0.4,0.1-0.7-0.1-0.9-0.4c-0.7-1.2-1.5-2.3-2.3-3.3c-0.8-1-1.7-1.9-2.6-2.6
			c-0.2-0.2-0.4-0.4-0.3-0.7l0.1-0.8C150.1,96.4,150.8,88.1,153.1,81.5z M166.5,73c-6.2-1.6-9.8,3-11.9,9c-2.3,6.4-2.9,14.6-3.2,19
			l0,0.4c0.9,0.8,1.8,1.6,2.6,2.6c0.7,0.9,1.5,1.9,2.1,3c0.7-0.2,1.5-0.3,2.1-0.5c0.3-0.1,0.6-0.1,0.9-0.2c-2.1-1.7-1.9-3.3-1.3-8
			l0.1-0.4c0.7-5.2,1.8-10,3.3-14.2C162.7,79.7,164.5,76.2,166.5,73z"/>
		<path class="st8" d="M181.2,122.2c2,0.8,3.7,1.8,5.3,3.1c0.3,0.3,0.4,0.7,0.2,1c-0.6,1.1-1.3,2.2-2.1,3.1c-0.6,0.7-1.2,1.4-1.9,2
			c3,3.8,3.1,6.1,1.7,7.3c-1.1,0.9-3,0.9-5.1,0.4c-2-0.5-4.2-1.4-5.9-2.6c-2.7-1.8-4.3-4.2-2.8-6.4c0.8-1.4,1.5-2.8,2.1-4.2
			c0.6-1.4,1.1-3,1.5-4.6c0.1-0.4,0.5-0.7,0.9-0.6C177.2,121,179.3,121.4,181.2,122.2z M184.9,126.1c-1.3-1-2.8-1.8-4.3-2.4
			c-1.6-0.6-3.3-1-5.1-1.2c-0.4,1.5-0.9,2.8-1.4,4.1c-0.7,1.5-1.4,3-2.1,4.4c0,0,0,0.1-0.1,0.1c-0.8,1.3,0.5,2.9,2.4,4.2
			c1.6,1.1,3.6,1.9,5.4,2.3c1.6,0.4,3.1,0.4,3.7-0.1c0.7-0.6,0.3-2.3-2.4-5.6c-0.3-0.3-0.2-0.9,0.1-1.2c0.8-0.7,1.6-1.5,2.3-2.3
			C183.9,127.7,184.4,127,184.9,126.1z"/>
		<path class="st4" d="M185.7,88.1c-3.5-14.1-17.1-15.5-10.7,4.4C178.6,91.1,182.2,89.6,185.7,88.1z"/>
		<path class="st4" d="M183.4,89.1c1.1,4.6,3,9.3,5.6,13.2c3,0.2,5.5,1.7,5.9,4.7h0c-4-0.9-8-1.5-12.1-1.7
			c-2.3-3.6-4.9-8.7-6.1-13.3L183.4,89.1z"/>
		<path class="st7" d="M185.7,88.1c-0.2-0.6-0.3-1.2-0.5-1.8c-11.4,5.8-10.9-4.7-7.5-8.7c-3.6-0.6-6.2,3.9-2.7,14.9L185.7,88.1z"/>
		<path class="st8" d="M174.4,90.3c-0.2,0.1-0.5,0-0.5-0.2c-0.1-0.2,0-0.4,0.2-0.5l10.7-4.4c0.2-0.1,0.5,0,0.5,0.2
			c0.1,0.2,0,0.5-0.2,0.5L174.4,90.3z"/>
		<path class="st7" d="M185.7,105.5c-4.3-8.2-6.2-10.7-1.7-13.9c-0.2-0.8-0.5-1.7-0.7-2.5l-6.7,2.8c1.2,4.6,3.8,9.8,6.1,13.3
			C183.8,105.3,184.8,105.3,185.7,105.5z"/>
		<path class="st8" d="M179.5,77.4c2.8,1.4,5.7,5.1,7.1,10.6h0c0.1,0.4-0.1,0.8-0.5,1l-10.7,4.4c0,0-0.1,0-0.1,0
			c-0.4,0.1-0.9-0.1-1-0.5c-2.2-6.9-2.1-11.5-0.7-13.8c0.7-1.2,1.6-1.8,2.6-2.1C177.2,76.6,178.3,76.8,179.5,77.4z M184.8,87.7
			c-1.3-4.6-3.7-7.7-6-8.8c-0.8-0.4-1.6-0.5-2.3-0.4c-0.6,0.2-1.2,0.6-1.6,1.3c-1.1,1.9-1.2,5.7,0.6,11.7L184.8,87.7z"/>
		<path class="st8" d="M185,96.5c-0.9-2-1.6-4.2-2.1-6.3l-5.2,2.1c0.5,1.9,1.3,3.9,2.2,5.8c1.1,2.3,2.3,4.5,3.4,6.3
			c2,0.1,3.9,0.3,5.8,0.6c1.6,0.2,3.2,0.5,4.7,0.8c-0.3-0.6-0.7-1.1-1.2-1.5c-0.9-0.7-2.2-1.2-3.6-1.2c-0.3,0-0.5-0.1-0.7-0.3
			C187,100.8,185.9,98.7,185,96.5z M184.2,88.9c0.5,2.4,1.3,4.7,2.3,6.9c0.8,2,1.8,3.9,3,5.6c1.6,0.1,3,0.7,4.1,1.5
			c1.1,0.9,1.9,2.2,2.1,3.8c0.1,0.4-0.2,0.8-0.7,0.9v0c-0.1,0-0.3,0-0.4,0c-1.9-0.5-3.9-0.8-5.9-1.1c-2-0.3-4-0.5-6.1-0.6
			c-0.3,0-0.5-0.2-0.7-0.4c-1.3-1.9-2.6-4.3-3.8-6.9c-1-2.2-1.9-4.5-2.5-6.7c-0.1-0.4,0.1-0.8,0.5-1l6.7-2.8c0.4-0.2,0.9,0,1.1,0.4
			C184.1,88.8,184.2,88.9,184.2,88.9L184.2,88.9z"/>
		<g>
			<path class="st26" d="M99.1,124.6c-1.2,0.5-2.2,1.2-3.1,1.8c-1,0.6-1.9,1.1-3.5,0.4c-0.6-0.3-1.4-0.1-1.8,0.3
				c-0.5,0.5-0.6,1.2-0.3,1.9c1.4,2.8,3.6,3.7,5.8,4.1c0,0,0,0,0,0c-0.3,0.6-0.2,1.4,0.3,1.9c3.6,3.5,8.2,4.1,13.2,2
				c3.1-1.4,4.8-4.2,4.8-7c0.1-2.8-1.5-5.7-4.8-7.1c-3.9-1.7-7.2-1.3-9.8,0.3C99.4,123.5,99.1,124.1,99.1,124.6L99.1,124.6z"/>
			<path class="st27" d="M91.9,128.3c2.6,5.2,8.9,2.1,9.6,5c-1.2,0.6-2.4,0.8-3.8,0.6c3.1,3,7.1,3.5,11.4,1.6c5-2.2,5.3-8.8,0-11.1
				c-3.3-1.5-6.1-1.1-8.3,0.2c0.7,0.1,1.3,0.4,1.8,0.8C97.3,125.7,96.4,130.4,91.9,128.3L91.9,128.3z"/>
			<path class="st28" d="M98.1,130.4c4.8-0.5,5.7,2.7,10.1,2.8c4.1,0.1,5-6,0-6.8c-1.8-0.3-3.5,0.1-5.1,1.1c1.2,0,2.1,0.5,2.8,1.3
				C102.9,128.3,100.3,128.7,98.1,130.4L98.1,130.4z M103.4,124.9c1.6-0.2,3.1,0,4.6,0.5C107,124.4,104.8,124.3,103.4,124.9
				L103.4,124.9z M101.5,134.7c2.1,0.6,4,0.3,5.6-0.7C105.8,135.6,103.4,135.8,101.5,134.7L101.5,134.7z"/>
		</g>
	</g>
</g>
</svg>
