<svg xmlns="http://www.w3.org/2000/svg" width="99.1" height="98.4" viewBox="0 0 99.1 98.4">
  <defs>
    <style>
      .a {
        fill: #f4a055;
      }
    </style>
  </defs>
  <g>
    <path class="a" d="M74.9,23.5C69.5,43.2,64.1,62.8,58.7,82.6L15.8,40.4Z" transform="translate(-0.5 -0.2)"/>
    <path class="a" d="M75.1,22,16,38.9l3.1-5.7c6.1-10.8,12-21.6,18-32.3.3-.6.5-.7,1.1-.4l36,20.8Z" transform="translate(-0.5 -0.2)"/>
    <path class="a" d="M76.5,22.9l5.3,9.2L98.6,60.9c.3.6.2.6-.2.9-12.6,6.7-25,13.6-37.5,20.3l-.7.4C65.6,62.6,71.1,42.9,76.5,22.9Z" transform="translate(-0.5 -0.2)"/>
    <path class="a" d="M15.3,41.8,57.6,83.4,14,84.9C14.5,70.6,15,56.3,15.3,41.8Z" transform="translate(-0.5 -0.2)"/>
    <path class="a" d="M99.6,62.9,63.9,98.4c-.8-2.5-1.5-4.9-2.2-7.3S60.6,87,60,85c-.1-.5-.1-.8.5-1.1L89.1,68.4l10.2-5.5S99.4,62.8,99.6,62.9Z" transform="translate(-0.5 -0.2)"/>
    <path class="a" d="M35.8.6C35,2,34.2,3.4,33.5,4.8,27.3,15.9,21.1,27.1,14.9,38.1c-.3.5-.5.7-1.1.5L2.1,35.3,1,35C12.6,23.5,24.1,12,35.8.6Z" transform="translate(-0.5 -0.2)"/>
    <path class="a" d="M16.8,86.2l5.5-.3,24.5-.8,11-.4c.3,0,.6-.1.8.4,1.3,4.5,2.6,8.9,3.9,13.6C47.2,94.5,32,90.3,16.8,86.3Z" transform="translate(-0.5 -0.2)"/>
    <path class="a" d="M12.5,81.8c-4-15.2-8-30.2-12-45.5l5.1,1.4,7.3,2c.9.3,1.1.6,1.1,1.5-.2,6.6-.5,13.2-.6,19.8s-.5,13.6-.6,20.3v.5Z" transform="translate(-0.5 -0.2)"/>
    <path class="a" d="M98.5,57.9c-2.1-3.4-4-7-6.1-10.4-4.8-8.3-9.6-16.7-14.5-25a.9.9,0,0,1,.2-1.4c2.9-2.6,5.7-5.3,8.7-8.1L98.5,57.8Z" transform="translate(-0.5 -0.2)"/>
    <path class="a" d="M40.5.2,85.4,12.5c-1.5,1.2-2.6,2.5-4,3.7l-4.7,4.3c-.4.4-.6.4-1.1.1-8.1-4.7-16.1-9.4-24.3-14-3.5-2-7-4-10.4-6.1C40.8.5,40.7.5,40.5.2Z" transform="translate(-0.5 -0.2)"/>
  </g>
</svg>
