<svg height="20.8" viewBox="0 0 44.8 20.8" width="44.8" xmlns="http://www.w3.org/2000/svg"><path d="m34.2 57h1.7l-.5-.3zm1.2-10.6.5-.2h-1.7z" fill="#fff" fill-rule="evenodd" transform="translate(-22.9 -41.1)"/><path d="m31.2 45.5c2.4-1.1 5.8-1.2 7.5.7a45.9 45.9 0 0 1 4.8-1.7c-2.9-5-9-3.5-12.3 1z" fill="#7471ad" fill-rule="evenodd" transform="translate(-22.9 -41.1)"/><path d="m43 44.7c-2.8-2.6-8-1.9-11.2.6l-.6.2c3.3-4.5 9.5-6 12.3-.9z" fill="#4e4c74" fill-rule="evenodd" transform="translate(-22.9 -41.1)"/><path d="m31.2 57.6c2.4 1.1 5.8 1.2 7.5-.7a30 30 0 0 0 4.8 1.6c-2.9 5.1-9 3.7-12.3-.9z" fill="#7471ad" fill-rule="evenodd" transform="translate(-22.9 -41.1)"/><path d="m43 58.4c-2.8 2.6-8 1.9-11.2-.6l-.6-.2c3.3 4.5 9.5 5.9 12.3.9z" fill="#4e4c74" fill-rule="evenodd" transform="translate(-22.9 -41.1)"/><path d="m35.6 55.3c10.3 5.9 23.8 6.2 31.9-3.8-8.1-9.9-21.6-9.6-31.9-3.7z" fill="#fff" fill-rule="evenodd" transform="translate(-22.9 -41.1)"/><path d="m42.9 55.2c-5.3-2.1-5.4-7.9-.4-10l2.6-1a33.2 33.2 0 0 0 -9.5 3.6v7.5c10.3 5.9 23.8 6.3 31.9-3.7l-1.2-1.3c-6 7.5-15.3 8.2-23.4 4.9z" fill="#c9c9c9" fill-rule="evenodd" transform="translate(-22.9 -41.1)"/><path d="m67.4 51.3a.3.3 0 0 1 .3.3c0 .1-.1.2-.3.2h-31.8c-.2 0-.3-.1-.3-.2a.3.3 0 0 1 .3-.3z" fill="#0b152a" transform="translate(-22.9 -41.1)"/><path d="m12.7 14.2v-7.5l-2.8-.8v9z" fill="#c9c9c9" fill-rule="evenodd"/><g transform="translate(-22.9 -41.1)"><path d="m35.6 49.1c.1 0 .2.1.2.3a.2.2 0 0 1 -.2.2h-2.8c-.2 0-.3-.1-.3-.2a.3.3 0 0 1 .3-.3z" fill="#0b152a"/><path d="m35.6 53.5a.2.2 0 0 1 .2.2c0 .2-.1.3-.2.3h-2.8a.3.3 0 0 1 -.3-.3c0-.1.2-.2.3-.2z" fill="#0b152a"/><path d="m35.6 51.3c.1 0 .2.1.2.3a.2.2 0 0 1 -.2.2h-2.8c-.2 0-.3-.1-.3-.2a.3.3 0 0 1 .3-.3z" fill="#0b152a"/><path d="m53.4 59.5a29.4 29.4 0 0 1 -18-3.9c0-.1-.1-.2-.1-.3v-7.7a30.1 30.1 0 0 1 17.9-4 21.1 21.1 0 0 1 14.3 7.8c.1.1.1.3 0 .3a20.7 20.7 0 0 1 -14.1 7.8zm-17.6-4.3a29.4 29.4 0 0 0 17.5 3.8 20.5 20.5 0 0 0 13.8-7.4 20.2 20.2 0 0 0 -13.8-7.5 29.4 29.4 0 0 0 -17.5 3.8z" fill="#0b152a"/><path d="m35.8 47.8v7.5c0 .1 0 .2-.2.3l-2.7.7h-.1c-.2 0-.3-.1-.3-.2v-9.1c.1-.2.2-.3.3-.2l2.8.7zm-.5 7.3v-7.1l-2.3-.6v8.3z" fill="#0b152a"/><path d="m35.4 45a9.9 9.9 0 0 0 -4.1.7h-.2c-.1-.1-.2-.2-.1-.4a12.3 12.3 0 0 1 3.4-3.1 8.7 8.7 0 0 1 3.8-1.1 5.6 5.6 0 0 1 3.5 1.1 6.2 6.2 0 0 1 2 2.2c0 .1-.1.2-.2.3l-2.4.7-2.3.9c-.1.1-.2 0-.3-.1a5.4 5.4 0 0 0 -3.1-1.2zm-3.4-.1a8.2 8.2 0 0 1 3.5-.4 5.2 5.2 0 0 1 3.2 1.4l2.3-.8a8.3 8.3 0 0 1 2.1-.6 7.3 7.3 0 0 0 -1.6-1.8 5.6 5.6 0 0 0 -3.3-1 8.3 8.3 0 0 0 -3.5 1.1 8.6 8.6 0 0 0 -2.7 2.1z" fill="#0b152a"/><path d="m35.5 58.6a10.2 10.2 0 0 1 -3.5-.4 10.9 10.9 0 0 0 2.7 2.2 8.3 8.3 0 0 0 3.5 1.1 5.6 5.6 0 0 0 3.3-1 9.7 9.7 0 0 0 1.6-1.8l-2.1-.6-2.3-.9a5.2 5.2 0 0 1 -3.2 1.4zm-4.2-1.2a9.9 9.9 0 0 0 4.1.7 4.5 4.5 0 0 0 3.1-1.4h.3l2.4.9 2.4.7a.2.2 0 0 1 .1.3 6.9 6.9 0 0 1 -1.9 2.2 6.6 6.6 0 0 1 -3.6 1.2 8.7 8.7 0 0 1 -3.7-1.1 11.2 11.2 0 0 1 -3.4-3.1c-.1-.2-.1-.3 0-.4s.2-.1.2 0z" fill="#0b152a"/><path d="m25.7 49.8-1 .6a1 1 0 0 1 -1.1.1.7.7 0 0 0 -.6.1.6.6 0 0 0 -.1.6 2.7 2.7 0 0 0 1.9 1.3.5.5 0 0 0 .1.6 3.4 3.4 0 0 0 4.1.6 2.4 2.4 0 0 0 0-4.4 3.1 3.1 0 0 0 -3.1.1.5.5 0 0 0 -.2.4z" fill="#0f162a" fill-rule="evenodd"/><path d="m23.4 51c.8 1.6 2.8.6 3 1.5a1.6 1.6 0 0 1 -1.2.2 3 3 0 0 0 3.6.5 1.9 1.9 0 0 0 0-3.5 2.9 2.9 0 0 0 -2.6.1l.6.2c-1.7.1-2 1.6-3.4 1z" fill="#e63756" fill-rule="evenodd"/><path d="m25.4 51.6c1.5-.1 1.7.9 3.1.9a1.1 1.1 0 1 0 0-2.1 2.3 2.3 0 0 0 -1.6.3 1.3 1.3 0 0 1 .9.4 3.2 3.2 0 0 0 -2.4.5zm1.6-1.7a3.8 3.8 0 0 1 1.5.1 1.6 1.6 0 0 0 -1.5-.1zm-.6 3.1a2.2 2.2 0 0 0 1.8-.2 1.5 1.5 0 0 1 -1.8.2z" fill="#f2944f" fill-rule="evenodd"/></g></svg>